<svg width="237" height="68" viewBox="0 0 237 68" fill="none" xmlns="http://www.w3.org/2000/svg">
<path d="M24.75 50C24.25 46.4333 23.7667 43.55 23.3 41.35H9.7C9.23333 43.55 8.75 46.4333 8.25 50H0.75C2.01667 37.9 5.98333 26.2333 12.65 15H20.4C27.0333 26.1667 30.9833 37.8333 32.25 50H24.75ZM22.1 35.85C20.7 30.35 18.8333 25.3 16.5 20.7C14.1667 25.3 12.3 30.35 10.9 35.85H22.1ZM57.9078 44.7V50H37.3078V15H45.0078V44.7H57.9078ZM69.6426 20.3V29.55H81.3926V34.85H69.6426V50H61.9426V15H83.5426V20.3H69.6426ZM109.906 50C109.406 46.4333 108.923 43.55 108.456 41.35H94.8563C94.3896 43.55 93.9063 46.4333 93.4063 50H85.9063C87.1729 37.9 91.1396 26.2333 97.8063 15H105.556C112.19 26.1667 116.14 37.8333 117.406 50H109.906ZM107.256 35.85C105.856 30.35 103.99 25.3 101.656 20.7C99.3229 25.3 97.4563 30.35 96.0563 35.85H107.256ZM133.664 50.5C129.297 50.5 125.931 49.25 123.564 46.75C121.197 44.25 120.014 40.7167 120.014 36.15C120.014 31.75 120.714 27.9167 122.114 24.65C123.547 21.3833 125.564 18.8833 128.164 17.15C130.797 15.3833 133.897 14.5 137.464 14.5C139.597 14.5 141.581 14.8667 143.414 15.6C145.247 16.3 146.714 17.2833 147.814 18.55C147.481 19.2833 147.047 19.9167 146.514 20.45C146.014 20.9833 145.547 21.25 145.114 21.25C144.681 21.25 144.231 21.1 143.764 20.8C142.631 19.9667 141.547 19.3833 140.514 19.05C139.514 18.6833 138.447 18.5 137.314 18.5C134.814 18.5 132.647 19.2167 130.814 20.65C128.981 22.05 127.581 24.1 126.614 26.8C125.647 29.4667 125.164 32.6333 125.164 36.3C125.164 43.0667 128.164 46.45 134.164 46.45C135.664 46.45 137.031 46.2333 138.264 45.8C139.497 45.3667 140.731 44.65 141.964 43.65C142.497 43.6833 142.931 43.9 143.264 44.3C143.597 44.7 143.747 45.1833 143.714 45.75C143.647 46.5833 143.131 47.3667 142.164 48.1C141.197 48.8333 139.947 49.4167 138.414 49.85C136.914 50.2833 135.331 50.5 133.664 50.5ZM159.083 18.75L157.483 30.15H171.333L170.833 33.95H156.933L155.233 46.25H171.733C171.499 47.7167 171.166 48.7167 170.733 49.25C170.333 49.75 169.616 50 168.583 50H149.733L154.633 15H175.883L175.383 18.75H159.083ZM196.811 35.1C197.611 35.9667 198.261 36.9833 198.761 38.15L203.561 49.7C202.695 50.1667 201.695 50.4 200.561 50.4C199.795 50.4 199.195 50.2667 198.761 50C198.328 49.7333 198.011 49.3167 197.811 48.75L194.061 39.45C193.528 38.1167 192.811 37.1833 191.911 36.65C191.011 36.0833 189.695 35.8 187.961 35.8H184.861L182.861 50H177.911L182.811 15H194.311C198.145 15 201.095 15.7667 203.161 17.3C205.228 18.8 206.261 20.9667 206.261 23.8C206.261 26.5333 205.395 28.9167 203.661 30.95C201.928 32.9833 199.645 34.3667 196.811 35.1ZM191.611 31.95C194.678 31.95 197.028 31.2833 198.661 29.95C200.328 28.5833 201.161 26.6333 201.161 24.1C201.161 20.6 198.645 18.85 193.611 18.85H187.211L185.411 31.95H191.611ZM236.252 15C236.285 15.1333 236.302 15.3833 236.302 15.75C236.302 16.1167 236.285 16.3833 236.252 16.55C236.019 18.0833 235.252 18.85 233.952 18.85H225.552L221.202 50H216.302L220.652 18.85H210.552L211.052 15H236.252Z" fill="black"/>
<path d="M36.9321 65V55.5455H43.3028V57.1935H38.931V59.4464H42.9751V61.0945H38.931V63.3519H43.3213V65H36.9321ZM46.7663 55.5455L48.6729 58.7678H48.7468L50.6626 55.5455H52.9201L50.0348 60.2727L52.9847 65H50.6857L48.7468 61.7731H48.6729L46.734 65H44.4442L47.4034 60.2727L44.4996 55.5455H46.7663ZM55.8146 65H53.6726L56.9364 55.5455H59.5124L62.7717 65H60.6296L58.2614 57.706H58.1875L55.8146 65ZM55.6808 61.2837H60.7404V62.8441H55.6808V61.2837ZM63.9096 55.5455H66.3748L68.9785 61.8977H69.0893L71.693 55.5455H74.1582V65H72.2193V58.8462H72.1408L69.6941 64.9538H68.3738L65.927 58.8232H65.8485V65H63.9096V55.5455ZM77.8041 55.5455V65H75.8051V55.5455H77.8041ZM87.3567 55.5455V65H85.6301L81.5169 59.0494H81.4476V65H79.4487V55.5455H81.2029L85.2839 61.4915H85.367V55.5455H87.3567ZM89.0083 65V55.5455H95.379V57.1935H91.0072V59.4464H95.0512V61.0945H91.0072V63.3519H95.3975V65H89.0083ZM96.9682 65V55.5455H100.698C101.412 55.5455 102.022 55.6732 102.526 55.9286C103.034 56.181 103.421 56.5395 103.685 57.0043C103.953 57.4659 104.087 58.0091 104.087 58.6339C104.087 59.2617 103.951 59.8018 103.681 60.2543C103.41 60.7036 103.017 61.0483 102.503 61.2884C101.992 61.5284 101.374 61.6484 100.648 61.6484H98.15V60.0419H100.324C100.706 60.0419 101.023 59.9896 101.275 59.8849C101.528 59.7803 101.715 59.6233 101.839 59.4141C101.965 59.2048 102.028 58.9447 102.028 58.6339C102.028 58.32 101.965 58.0553 101.839 57.8398C101.715 57.6244 101.526 57.4613 101.271 57.3505C101.018 57.2366 100.7 57.1797 100.315 57.1797H98.9672V65H96.9682ZM102.074 60.6974L104.424 65H102.217L99.9181 60.6974H102.074ZM107.498 55.5455V65H105.499V55.5455H107.498ZM117.051 55.5455V65H115.324L111.211 59.0494H111.142V65H109.143V55.5455H110.897L114.978 61.4915H115.061V55.5455H117.051ZM124.972 58.6016C124.907 58.3769 124.816 58.1784 124.699 58.006C124.582 57.8306 124.439 57.6829 124.27 57.5629C124.104 57.4397 123.913 57.3459 123.698 57.2812C123.485 57.2166 123.25 57.1843 122.991 57.1843C122.508 57.1843 122.083 57.3043 121.717 57.5444C121.354 57.7844 121.071 58.1338 120.868 58.5923C120.665 59.0478 120.563 59.6049 120.563 60.2635C120.563 60.9221 120.663 61.4822 120.863 61.9439C121.063 62.4055 121.346 62.7579 121.713 63.0011C122.079 63.2411 122.511 63.3612 123.01 63.3612C123.462 63.3612 123.848 63.2811 124.169 63.1211C124.492 62.958 124.738 62.7287 124.907 62.4332C125.079 62.1378 125.166 61.7885 125.166 61.3853L125.572 61.4453H123.134V59.9403H127.091V61.1314C127.091 61.9624 126.915 62.6764 126.564 63.2734C126.214 63.8674 125.73 64.326 125.115 64.6491C124.499 64.9692 123.795 65.1293 123.001 65.1293C122.114 65.1293 121.336 64.9338 120.665 64.543C119.994 64.149 119.47 63.5904 119.095 62.8672C118.723 62.1409 118.536 61.2791 118.536 60.282C118.536 59.5156 118.647 58.8324 118.869 58.2322C119.093 57.629 119.407 57.1181 119.811 56.6996C120.214 56.281 120.683 55.9625 121.219 55.744C121.754 55.5254 122.334 55.4162 122.959 55.4162C123.494 55.4162 123.993 55.4947 124.455 55.6516C124.916 55.8055 125.326 56.024 125.683 56.3072C126.043 56.5903 126.337 56.9273 126.564 57.3182C126.792 57.706 126.938 58.1338 127.003 58.6016H124.972ZM133.721 58.2646C133.684 57.8922 133.526 57.6029 133.246 57.3967C132.966 57.1905 132.585 57.0874 132.105 57.0874C131.779 57.0874 131.504 57.1335 131.279 57.2259C131.054 57.3151 130.882 57.4397 130.762 57.5998C130.645 57.7598 130.587 57.9414 130.587 58.1445C130.58 58.3138 130.616 58.4615 130.693 58.5877C130.773 58.7139 130.882 58.8232 131.021 58.9155C131.159 59.0047 131.319 59.0832 131.501 59.1509C131.682 59.2156 131.876 59.271 132.082 59.3171L132.932 59.5202C133.344 59.6126 133.723 59.7357 134.067 59.8896C134.412 60.0434 134.711 60.2327 134.963 60.4574C135.215 60.6821 135.411 60.9467 135.549 61.2514C135.691 61.5561 135.763 61.9054 135.766 62.2994C135.763 62.878 135.615 63.3796 135.323 63.8043C135.034 64.226 134.615 64.5537 134.067 64.7876C133.523 65.0185 132.866 65.1339 132.096 65.1339C131.333 65.1339 130.668 65.0169 130.102 64.783C129.539 64.5491 129.099 64.2029 128.782 63.7443C128.468 63.2827 128.303 62.7118 128.288 62.0316H130.222C130.243 62.3486 130.334 62.6133 130.494 62.8256C130.657 63.0349 130.874 63.1934 131.145 63.3011C131.419 63.4058 131.728 63.4581 132.073 63.4581C132.412 63.4581 132.706 63.4089 132.955 63.3104C133.207 63.2119 133.403 63.0749 133.541 62.8995C133.68 62.7241 133.749 62.5225 133.749 62.2947C133.749 62.0824 133.686 61.9039 133.56 61.7592C133.436 61.6146 133.255 61.4915 133.015 61.3899C132.778 61.2884 132.487 61.196 132.142 61.1129L131.113 60.8544C130.316 60.6605 129.686 60.3574 129.225 59.945C128.763 59.5326 128.534 58.977 128.537 58.2784C128.534 57.706 128.686 57.2058 128.994 56.7781C129.305 56.3503 129.731 56.0163 130.273 55.7763C130.814 55.5362 131.43 55.4162 132.119 55.4162C132.821 55.4162 133.433 55.5362 133.957 55.7763C134.483 56.0163 134.892 56.3503 135.185 56.7781C135.477 57.2058 135.628 57.7013 135.637 58.2646H133.721ZM138.819 55.5455L141.104 62.7287H141.192L143.482 55.5455H145.697L142.438 65H139.862L136.598 55.5455H138.819ZM146.835 65V55.5455H153.206V57.1935H148.834V59.4464H152.878V61.0945H148.834V63.3519H153.225V65H146.835ZM154.795 65V55.5455H158.525C159.239 55.5455 159.849 55.6732 160.354 55.9286C160.861 56.181 161.248 56.5395 161.512 57.0043C161.78 57.4659 161.914 58.0091 161.914 58.6339C161.914 59.2617 161.779 59.8018 161.508 60.2543C161.237 60.7036 160.844 61.0483 160.331 61.2884C159.82 61.5284 159.201 61.6484 158.475 61.6484H155.977V60.0419H158.152C158.533 60.0419 158.85 59.9896 159.103 59.8849C159.355 59.7803 159.543 59.6233 159.666 59.4141C159.792 59.2048 159.855 58.9447 159.855 58.6339C159.855 58.32 159.792 58.0553 159.666 57.8398C159.543 57.6244 159.353 57.4613 159.098 57.3505C158.846 57.2366 158.527 57.1797 158.142 57.1797H156.794V65H154.795ZM159.901 60.6974L162.251 65H160.044L157.745 60.6974H159.901ZM163.327 65V55.5455H165.326V59.7141H165.45L168.853 55.5455H171.248L167.74 59.7788L171.29 65H168.899L166.309 61.1129L165.326 62.3132V65H163.327ZM171.929 57.1935V55.5455H179.694V57.1935H176.8V65H174.824V57.1935H171.929ZM180.419 55.5455H182.658L184.814 59.6172H184.906L187.062 55.5455H189.301L185.853 61.6577V65H183.868V61.6577L180.419 55.5455ZM196.091 58.6016C196.026 58.3769 195.935 58.1784 195.819 58.006C195.702 57.8306 195.558 57.6829 195.389 57.5629C195.223 57.4397 195.032 57.3459 194.817 57.2812C194.604 57.2166 194.369 57.1843 194.11 57.1843C193.627 57.1843 193.203 57.3043 192.836 57.5444C192.473 57.7844 192.19 58.1338 191.987 58.5923C191.784 59.0478 191.682 59.6049 191.682 60.2635C191.682 60.9221 191.782 61.4822 191.982 61.9439C192.182 62.4055 192.465 62.7579 192.832 63.0011C193.198 63.2411 193.63 63.3612 194.129 63.3612C194.581 63.3612 194.968 63.2811 195.288 63.1211C195.611 62.958 195.857 62.7287 196.026 62.4332C196.199 62.1378 196.285 61.7885 196.285 61.3853L196.691 61.4453H194.254V59.9403H198.21V61.1314C198.21 61.9624 198.034 62.6764 197.684 63.2734C197.333 63.8674 196.85 64.326 196.234 64.6491C195.618 64.9692 194.914 65.1293 194.12 65.1293C193.233 65.1293 192.455 64.9338 191.784 64.543C191.113 64.149 190.59 63.5904 190.214 62.8672C189.842 62.1409 189.656 61.2791 189.656 60.282C189.656 59.5156 189.766 58.8324 189.988 58.2322C190.213 57.629 190.527 57.1181 190.93 56.6996C191.333 56.281 191.802 55.9625 192.338 55.744C192.873 55.5254 193.453 55.4162 194.078 55.4162C194.614 55.4162 195.112 55.4947 195.574 55.6516C196.036 55.8055 196.445 56.024 196.802 56.3072C197.162 56.5903 197.456 56.9273 197.684 57.3182C197.911 57.706 198.058 58.1338 198.122 58.6016H196.091Z" fill="black"/>
</svg>
