<?xml version="1.0" encoding="UTF-8"?>
<svg id="Ebene_1" xmlns="http://www.w3.org/2000/svg" version="1.1" xmlns:xlink="http://www.w3.org/1999/xlink" viewBox="0 0 62.4 60.2">
  <!-- Generator: Adobe Illustrator 29.1.0, SVG Export Plug-In . SVG Version: 2.1.0 Build 142)  -->
  <defs>
    <style>
      .st0 {
        fill: none;
      }

      .st1 {
        fill: #1d1d1b;
      }

      .st2 {
        clip-path: url(#clippath);
      }
    </style>
    <clipPath id="clippath">
      <rect class="st0" width="62.3" height="60.2"/>
    </clipPath>
  </defs>
  <g class="st2">
    <path class="st1" d="M24.2,47.9c0,0-.1,0-.2,0-.1,0-.2-.2-.1-.4l2.7-8.6-7.1-5.3c-.1,0-.2-.2-.1-.4,0-.1.2-.2.3-.2h8.8l2.7-8.6c0-.1.2-.2.3-.2s.3,0,.3.2l2.7,8.6h8.8c.1,0,.3,0,.3.2,0,.1,0,.3-.1.4l-7.1,5.3,2.7,8.6c0,.1,0,.3-.1.4s-.3,0-.4,0l-7.1-5.3-7.1,5.3c0,0-.1,0-.2,0"/>
    <path class="st1" d="M61.2,31.9c-.2,0-.4,0-.6-.2L31.1,2.2,1.7,31.7c-.3.3-.8.3-1.2,0-.3-.3-.3-.8,0-1.2L30.6.5c.3-.3.8-.3,1.2,0l30,30c.3.3.3.8,0,1.2-.2.2-.4.2-.6.2"/>
    <path class="st1" d="M31.1,1.9c0,0,.2,0,.2,0l29.4,29.4c.2.2.5.2.7,0,0,0,.1-.2.1-.4s0-.3-.1-.4L31.5.7c-.2-.2-.5-.2-.7,0L.8,30.8c0,0-.1.2-.1.4s0,.3.1.4c.2.2.5.2.7,0L30.9,2c0,0,.1,0,.2,0M61.2,32.2c-.3,0-.6-.1-.8-.3L31.1,2.7,1.9,31.9c-.4.4-1.2.4-1.6,0-.4-.4-.4-1.1,0-1.6L30.3.3c.4-.4,1.2-.4,1.6,0l30,30c.2.2.3.5.3.8s-.1.6-.3.8c-.2.2-.5.3-.8.3"/>
    <path class="st1" d="M54.2,59V23.7c0-.6-.5-1.1-1.1-1.1s-1.1.5-1.1,1.1v34.2H10.3V23.7c0-.6-.5-1.1-1.1-1.1s-1.1.5-1.1,1.1v35.3c0,.6.5,1.1,1.1,1.1h43.9c.6,0,1.1-.5,1.1-1.1"/>
  </g>
</svg>