<svg width="389" height="110" viewBox="0 0 389 110" fill="none" xmlns="http://www.w3.org/2000/svg">
<rect width="389" height="110" fill="white"/>
<path d="M101.75 85C101.25 81.4333 100.767 78.55 100.3 76.35H86.7C86.2333 78.55 85.75 81.4333 85.25 85H77.75C79.0167 72.9 82.9833 61.2333 89.65 50H97.4C104.033 61.1667 107.983 72.8333 109.25 85H101.75ZM99.1 70.85C97.7 65.35 95.8333 60.3 93.5 55.7C91.1667 60.3 89.3 65.35 87.9 70.85H99.1ZM134.908 79.7V85H114.308V50H122.008V79.7H134.908ZM146.643 55.3V64.55H158.393V69.85H146.643V85H138.943V50H160.543V55.3H146.643ZM186.906 85C186.406 81.4333 185.923 78.55 185.456 76.35H171.856C171.39 78.55 170.906 81.4333 170.406 85H162.906C164.173 72.9 168.14 61.2333 174.806 50H182.556C189.19 61.1667 193.14 72.8333 194.406 85H186.906ZM184.256 70.85C182.856 65.35 180.99 60.3 178.656 55.7C176.323 60.3 174.456 65.35 173.056 70.85H184.256ZM210.664 85.5C206.297 85.5 202.931 84.25 200.564 81.75C198.197 79.25 197.014 75.7167 197.014 71.15C197.014 66.75 197.714 62.9167 199.114 59.65C200.547 56.3833 202.564 53.8833 205.164 52.15C207.797 50.3833 210.897 49.5 214.464 49.5C216.597 49.5 218.581 49.8667 220.414 50.6C222.247 51.3 223.714 52.2833 224.814 53.55C224.481 54.2833 224.047 54.9167 223.514 55.45C223.014 55.9833 222.547 56.25 222.114 56.25C221.681 56.25 221.231 56.1 220.764 55.8C219.631 54.9667 218.547 54.3833 217.514 54.05C216.514 53.6833 215.447 53.5 214.314 53.5C211.814 53.5 209.647 54.2167 207.814 55.65C205.981 57.05 204.581 59.1 203.614 61.8C202.647 64.4667 202.164 67.6333 202.164 71.3C202.164 78.0667 205.164 81.45 211.164 81.45C212.664 81.45 214.031 81.2333 215.264 80.8C216.497 80.3667 217.731 79.65 218.964 78.65C219.497 78.6833 219.931 78.9 220.264 79.3C220.597 79.7 220.747 80.1833 220.714 80.75C220.647 81.5833 220.131 82.3667 219.164 83.1C218.197 83.8333 216.947 84.4167 215.414 84.85C213.914 85.2833 212.331 85.5 210.664 85.5ZM236.083 53.75L234.483 65.15H248.333L247.833 68.95H233.933L232.233 81.25H248.733C248.499 82.7167 248.166 83.7167 247.733 84.25C247.333 84.75 246.616 85 245.583 85H226.733L231.633 50H252.883L252.383 53.75H236.083ZM273.811 70.1C274.611 70.9667 275.261 71.9833 275.761 73.15L280.561 84.7C279.695 85.1667 278.695 85.4 277.561 85.4C276.795 85.4 276.195 85.2667 275.761 85C275.328 84.7333 275.011 84.3167 274.811 83.75L271.061 74.45C270.528 73.1167 269.811 72.1833 268.911 71.65C268.011 71.0833 266.695 70.8 264.961 70.8H261.861L259.861 85H254.911L259.811 50H271.311C275.145 50 278.095 50.7667 280.161 52.3C282.228 53.8 283.261 55.9667 283.261 58.8C283.261 61.5333 282.395 63.9167 280.661 65.95C278.928 67.9833 276.645 69.3667 273.811 70.1ZM268.611 66.95C271.678 66.95 274.028 66.2833 275.661 64.95C277.328 63.5833 278.161 61.6333 278.161 59.1C278.161 55.6 275.645 53.85 270.611 53.85H264.211L262.411 66.95H268.611ZM313.252 50C313.285 50.1333 313.302 50.3833 313.302 50.75C313.302 51.1167 313.285 51.3833 313.252 51.55C313.019 53.0833 312.252 53.85 310.952 53.85H302.552L298.202 85H293.302L297.652 53.85H287.552L288.052 50H313.252Z" fill="black"/>
<path d="M113.932 100V90.5455H120.303V92.1935H115.931V94.4464H119.975V96.0945H115.931V98.3519H120.321V100H113.932ZM123.766 90.5455L125.673 93.7678H125.747L127.663 90.5455H129.92L127.035 95.2727L129.985 100H127.686L125.747 96.7731H125.673L123.734 100H121.444L124.403 95.2727L121.5 90.5455H123.766ZM132.815 100H130.673L133.936 90.5455H136.512L139.772 100H137.63L135.261 92.706H135.188L132.815 100ZM132.681 96.2837H137.74V97.8441H132.681V96.2837ZM140.91 90.5455H143.375L145.979 96.8977H146.089L148.693 90.5455H151.158V100H149.219V93.8462H149.141L146.694 99.9538H145.374L142.927 93.8232H142.849V100H140.91V90.5455ZM154.804 90.5455V100H152.805V90.5455H154.804ZM164.357 90.5455V100H162.63L158.517 94.0494H158.448V100H156.449V90.5455H158.203L162.284 96.4915H162.367V90.5455H164.357ZM166.008 100V90.5455H172.379V92.1935H168.007V94.4464H172.051V96.0945H168.007V98.3519H172.397V100H166.008ZM173.968 100V90.5455H177.698C178.412 90.5455 179.022 90.6732 179.526 90.9286C180.034 91.181 180.421 91.5395 180.685 92.0043C180.953 92.4659 181.087 93.0091 181.087 93.6339C181.087 94.2617 180.951 94.8018 180.681 95.2543C180.41 95.7036 180.017 96.0483 179.503 96.2884C178.992 96.5284 178.374 96.6484 177.648 96.6484H175.15V95.0419H177.324C177.706 95.0419 178.023 94.9896 178.275 94.8849C178.528 94.7803 178.715 94.6233 178.839 94.4141C178.965 94.2048 179.028 93.9447 179.028 93.6339C179.028 93.32 178.965 93.0553 178.839 92.8398C178.715 92.6244 178.526 92.4613 178.271 92.3505C178.018 92.2366 177.7 92.1797 177.315 92.1797H175.967V100H173.968ZM179.074 95.6974L181.424 100H179.217L176.918 95.6974H179.074ZM184.498 90.5455V100H182.499V90.5455H184.498ZM194.051 90.5455V100H192.324L188.211 94.0494H188.142V100H186.143V90.5455H187.897L191.978 96.4915H192.061V90.5455H194.051ZM201.972 93.6016C201.907 93.3769 201.816 93.1784 201.699 93.006C201.582 92.8306 201.439 92.6829 201.27 92.5629C201.104 92.4397 200.913 92.3459 200.698 92.2812C200.485 92.2166 200.25 92.1843 199.991 92.1843C199.508 92.1843 199.083 92.3043 198.717 92.5444C198.354 92.7844 198.071 93.1338 197.868 93.5923C197.665 94.0478 197.563 94.6049 197.563 95.2635C197.563 95.9221 197.663 96.4822 197.863 96.9439C198.063 97.4055 198.346 97.7579 198.713 98.0011C199.079 98.2411 199.511 98.3612 200.01 98.3612C200.462 98.3612 200.848 98.2811 201.169 98.1211C201.492 97.958 201.738 97.7287 201.907 97.4332C202.079 97.1378 202.166 96.7885 202.166 96.3853L202.572 96.4453H200.134V94.9403H204.091V96.1314C204.091 96.9624 203.915 97.6764 203.564 98.2734C203.214 98.8674 202.73 99.326 202.115 99.6491C201.499 99.9692 200.795 100.129 200.001 100.129C199.114 100.129 198.336 99.9338 197.665 99.543C196.994 99.149 196.47 98.5904 196.095 97.8672C195.723 97.1409 195.536 96.2791 195.536 95.282C195.536 94.5156 195.647 93.8324 195.869 93.2322C196.093 92.629 196.407 92.1181 196.811 91.6996C197.214 91.281 197.683 90.9625 198.219 90.744C198.754 90.5254 199.334 90.4162 199.959 90.4162C200.494 90.4162 200.993 90.4947 201.455 90.6516C201.916 90.8055 202.326 91.024 202.683 91.3072C203.043 91.5903 203.337 91.9273 203.564 92.3182C203.792 92.706 203.938 93.1338 204.003 93.6016H201.972ZM210.721 93.2646C210.684 92.8922 210.526 92.6029 210.246 92.3967C209.966 92.1905 209.585 92.0874 209.105 92.0874C208.779 92.0874 208.504 92.1335 208.279 92.2259C208.054 92.3151 207.882 92.4397 207.762 92.5998C207.645 92.7598 207.587 92.9414 207.587 93.1445C207.58 93.3138 207.616 93.4615 207.693 93.5877C207.773 93.7139 207.882 93.8232 208.021 93.9155C208.159 94.0047 208.319 94.0832 208.501 94.1509C208.682 94.2156 208.876 94.271 209.082 94.3171L209.932 94.5202C210.344 94.6126 210.723 94.7357 211.067 94.8896C211.412 95.0434 211.711 95.2327 211.963 95.4574C212.215 95.6821 212.411 95.9467 212.549 96.2514C212.691 96.5561 212.763 96.9054 212.766 97.2994C212.763 97.878 212.615 98.3796 212.323 98.8043C212.034 99.226 211.615 99.5537 211.067 99.7876C210.523 100.018 209.866 100.134 209.096 100.134C208.333 100.134 207.668 100.017 207.102 99.783C206.539 99.5491 206.099 99.2029 205.782 98.7443C205.468 98.2827 205.303 97.7118 205.288 97.0316H207.222C207.243 97.3486 207.334 97.6133 207.494 97.8256C207.657 98.0349 207.874 98.1934 208.145 98.3011C208.419 98.4058 208.728 98.4581 209.073 98.4581C209.412 98.4581 209.706 98.4089 209.955 98.3104C210.207 98.2119 210.403 98.0749 210.541 97.8995C210.68 97.7241 210.749 97.5225 210.749 97.2947C210.749 97.0824 210.686 96.9039 210.56 96.7592C210.436 96.6146 210.255 96.4915 210.015 96.3899C209.778 96.2884 209.487 96.196 209.142 96.1129L208.113 95.8544C207.316 95.6605 206.686 95.3574 206.225 94.945C205.763 94.5326 205.534 93.977 205.537 93.2784C205.534 92.706 205.686 92.2058 205.994 91.7781C206.305 91.3503 206.731 91.0163 207.273 90.7763C207.814 90.5362 208.43 90.4162 209.119 90.4162C209.821 90.4162 210.433 90.5362 210.957 90.7763C211.483 91.0163 211.892 91.3503 212.185 91.7781C212.477 92.2058 212.628 92.7013 212.637 93.2646H210.721ZM215.819 90.5455L218.104 97.7287H218.192L220.482 90.5455H222.697L219.438 100H216.862L213.598 90.5455H215.819ZM223.835 100V90.5455H230.206V92.1935H225.834V94.4464H229.878V96.0945H225.834V98.3519H230.225V100H223.835ZM231.795 100V90.5455H235.525C236.239 90.5455 236.849 90.6732 237.354 90.9286C237.861 91.181 238.248 91.5395 238.512 92.0043C238.78 92.4659 238.914 93.0091 238.914 93.6339C238.914 94.2617 238.779 94.8018 238.508 95.2543C238.237 95.7036 237.844 96.0483 237.331 96.2884C236.82 96.5284 236.201 96.6484 235.475 96.6484H232.977V95.0419H235.152C235.533 95.0419 235.85 94.9896 236.103 94.8849C236.355 94.7803 236.543 94.6233 236.666 94.4141C236.792 94.2048 236.855 93.9447 236.855 93.6339C236.855 93.32 236.792 93.0553 236.666 92.8398C236.543 92.6244 236.353 92.4613 236.098 92.3505C235.846 92.2366 235.527 92.1797 235.142 92.1797H233.794V100H231.795ZM236.901 95.6974L239.251 100H237.044L234.745 95.6974H236.901ZM240.327 100V90.5455H242.326V94.7141H242.45L245.853 90.5455H248.248L244.74 94.7788L248.29 100H245.899L243.309 96.1129L242.326 97.3132V100H240.327ZM248.929 92.1935V90.5455H256.694V92.1935H253.8V100H251.824V92.1935H248.929ZM257.419 90.5455H259.658L261.814 94.6172H261.906L264.062 90.5455H266.301L262.853 96.6577V100H260.868V96.6577L257.419 90.5455ZM273.091 93.6016C273.026 93.3769 272.935 93.1784 272.819 93.006C272.702 92.8306 272.558 92.6829 272.389 92.5629C272.223 92.4397 272.032 92.3459 271.817 92.2812C271.604 92.2166 271.369 92.1843 271.11 92.1843C270.627 92.1843 270.203 92.3043 269.836 92.5444C269.473 92.7844 269.19 93.1338 268.987 93.5923C268.784 94.0478 268.682 94.6049 268.682 95.2635C268.682 95.9221 268.782 96.4822 268.982 96.9439C269.182 97.4055 269.465 97.7579 269.832 98.0011C270.198 98.2411 270.63 98.3612 271.129 98.3612C271.581 98.3612 271.968 98.2811 272.288 98.1211C272.611 97.958 272.857 97.7287 273.026 97.4332C273.199 97.1378 273.285 96.7885 273.285 96.3853L273.691 96.4453H271.254V94.9403H275.21V96.1314C275.21 96.9624 275.034 97.6764 274.684 98.2734C274.333 98.8674 273.85 99.326 273.234 99.6491C272.618 99.9692 271.914 100.129 271.12 100.129C270.233 100.129 269.455 99.9338 268.784 99.543C268.113 99.149 267.59 98.5904 267.214 97.8672C266.842 97.1409 266.656 96.2791 266.656 95.282C266.656 94.5156 266.766 93.8324 266.988 93.2322C267.213 92.629 267.527 92.1181 267.93 91.6996C268.333 91.281 268.802 90.9625 269.338 90.744C269.873 90.5254 270.453 90.4162 271.078 90.4162C271.614 90.4162 272.112 90.4947 272.574 90.6516C273.036 90.8055 273.445 91.024 273.802 91.3072C274.162 91.5903 274.456 91.9273 274.684 92.3182C274.911 92.706 275.058 93.1338 275.122 93.6016H273.091Z" fill="black"/>
</svg>
