<svg xmlns="http://www.w3.org/2000/svg" xmlns:xlink="http://www.w3.org/1999/xlink" preserveAspectRatio="xMidYMid" width="60" height="60" viewBox="0 0 60 60">
  <defs>
    <style>
      .cls-1 {
        fill: #000;
        fill-rule: evenodd;
      }
    </style>
  </defs>
  <path d="M30.001,59.999 C13.458,59.999 0.000,46.541 0.000,29.999 C0.000,13.457 13.458,-0.001 30.001,-0.001 C46.542,-0.001 60.000,13.457 60.000,29.999 C60.000,46.541 46.542,59.999 30.001,59.999 ZM30.001,1.999 C14.561,1.999 2.000,14.560 2.000,29.999 C2.000,45.440 14.561,57.999 30.001,57.999 C45.440,57.999 58.000,45.440 58.000,29.999 C58.000,14.560 45.440,1.999 30.001,1.999 ZM30.708,36.706 C30.512,36.901 30.256,36.999 30.001,36.999 C29.745,36.999 29.489,36.901 29.293,36.706 L17.294,24.707 C16.903,24.315 16.903,23.682 17.294,23.292 C17.684,22.901 18.317,22.901 18.708,23.292 L30.001,34.585 L41.293,23.292 C41.684,22.901 42.317,22.901 42.707,23.292 C43.098,23.682 43.098,24.315 42.707,24.707 L30.708,36.706 Z" class="cls-1"/>
</svg>
