<?xml version="1.0" encoding="UTF-8"?>
<svg id="Ebene_1" xmlns="http://www.w3.org/2000/svg" version="1.1" viewBox="0 0 60.5 60.2">
  <!-- Generator: Adobe Illustrator 29.1.0, SVG Export Plug-In . SVG Version: 2.1.0 Build 142)  -->
  <defs>
    <style>
      .st0 {
        fill: #c2dad3;
      }
    </style>
  </defs>
  <path class="st0" d="M30.2,60.2c16.5,0,30-13.4,30-30S46.8.3,30.2.3.3,13.7.3,30.2s13.4,30,30,30"/>
  <path d="M39.9,29.6l-13.9-12.2c-.2-.2-.5-.3-.8-.3-.3,0-.5.2-.7.4-.4.4-.3,1.1.1,1.5l13,11.4-13,11.4c-.4.4-.5,1-.1,1.5.2.2.4.4.7.4,0,0,0,0,0,0,.2,0,.5,0,.7-.3l13.9-12.2c.2-.2.4-.5.4-.8s-.1-.6-.4-.8Z"/>
</svg>