<svg xmlns="http://www.w3.org/2000/svg" xmlns:xlink="http://www.w3.org/1999/xlink" preserveAspectRatio="xMidYMid" width="35.82" height="60" viewBox="0 0 35.82 60">
  <defs>
    <style>
      .cls-1 {
        fill: #000;
        fill-rule: evenodd;
      }
    </style>
  </defs>
  <path d="M35.541,41.686 L18.636,59.686 C18.632,59.689 18.627,59.690 18.624,59.694 C18.550,59.771 18.459,59.828 18.363,59.877 C18.342,59.889 18.325,59.909 18.303,59.918 C18.183,59.970 18.052,59.999 17.913,59.999 C17.774,59.999 17.642,59.970 17.522,59.918 C17.500,59.909 17.484,59.888 17.462,59.877 C17.367,59.827 17.275,59.771 17.201,59.694 C17.198,59.690 17.193,59.689 17.190,59.686 L0.284,41.686 C-0.093,41.284 -0.075,40.652 0.325,40.272 C0.724,39.893 1.353,39.911 1.731,40.313 L16.918,56.484 L16.918,1.000 C16.918,0.447 17.364,-0.001 17.913,-0.001 C18.462,-0.001 18.907,0.447 18.907,1.000 L18.907,56.484 L34.095,40.313 C34.473,39.911 35.102,39.893 35.501,40.272 C35.900,40.652 35.918,41.284 35.541,41.686 Z" class="cls-1"/>
</svg>
