<svg xmlns="http://www.w3.org/2000/svg" xmlns:xlink="http://www.w3.org/1999/xlink" preserveAspectRatio="xMidYMid" width="35.818" height="59.91" viewBox="0 0 35.818 59.91">
  <defs>
    <style>
      .cls-1 {
        fill: #000;
        fill-rule: evenodd;
      }
    </style>
  </defs>
  <path d="M35.502,19.690 C35.310,19.872 35.064,19.962 34.819,19.962 C34.556,19.962 34.292,19.858 34.096,19.648 L18.908,3.501 L18.908,58.908 C18.908,59.459 18.463,59.907 17.914,59.907 C17.365,59.907 16.919,59.459 16.919,58.908 L16.919,3.501 L1.732,19.648 C1.354,20.051 0.725,20.068 0.326,19.690 C-0.074,19.311 -0.092,18.678 0.286,18.278 L17.191,0.304 C17.194,0.300 17.198,0.300 17.201,0.296 C17.382,0.109 17.633,-0.010 17.914,-0.010 C18.195,-0.010 18.446,0.109 18.626,0.296 C18.629,0.300 18.634,0.300 18.637,0.304 L35.542,18.278 C35.920,18.678 35.901,19.311 35.502,19.690 Z" class="cls-1"/>
</svg>
