<svg xmlns="http://www.w3.org/2000/svg" xmlns:xlink="http://www.w3.org/1999/xlink" preserveAspectRatio="xMidYMid" width="60" height="60" viewBox="0 0 60 60">
  <defs>
    <style>
      .cls-1 {
        fill: #000;
        fill-rule: evenodd;
      }
    </style>
  </defs>
  <path d="M30.000,59.999 C13.458,59.999 0.000,46.541 0.000,29.999 C0.000,13.457 13.458,-0.001 30.000,-0.001 C46.542,-0.001 60.000,13.457 60.000,29.999 C60.000,46.541 46.542,59.999 30.000,59.999 ZM30.000,1.999 C14.561,1.999 2.000,14.560 2.000,29.999 C2.000,45.440 14.561,57.999 30.000,57.999 C45.440,57.999 58.000,45.440 58.000,29.999 C58.000,14.560 45.440,1.999 30.000,1.999 ZM42.000,36.999 C41.744,36.999 41.488,36.901 41.293,36.706 L30.000,25.413 L18.707,36.706 C18.316,37.097 17.684,37.097 17.293,36.706 C16.902,36.315 16.902,35.682 17.293,35.292 L29.293,23.292 C29.684,22.901 30.316,22.901 30.707,23.292 L42.707,35.292 C43.098,35.682 43.098,36.315 42.707,36.706 C42.512,36.901 42.256,36.999 42.000,36.999 Z" class="cls-1"/>
</svg>
