<svg xmlns="http://www.w3.org/2000/svg" xmlns:xlink="http://www.w3.org/1999/xlink" preserveAspectRatio="xMidYMid" width="60" height="35.91" viewBox="0 0 60 35.91">
  <defs>
    <style>
      .cls-1 {
        fill: #000;
        fill-rule: evenodd;
      }
    </style>
  </defs>
  <path d="M59.000,18.970 L3.515,18.970 L19.686,34.202 C20.088,34.579 20.106,35.211 19.727,35.611 C19.530,35.819 19.265,35.924 19.000,35.924 C18.754,35.924 18.507,35.833 18.314,35.651 L0.314,18.698 C0.310,18.695 0.309,18.690 0.305,18.687 C0.229,18.612 0.172,18.521 0.122,18.426 C0.111,18.404 0.091,18.388 0.081,18.365 C0.029,18.245 0.000,18.112 0.000,17.973 C0.000,17.834 0.029,17.702 0.081,17.581 C0.089,17.563 0.105,17.550 0.114,17.532 C0.165,17.432 0.226,17.337 0.306,17.259 C0.309,17.256 0.310,17.252 0.314,17.249 L18.314,0.295 C18.715,-0.082 19.347,-0.065 19.727,0.337 C20.106,0.736 20.088,1.367 19.686,1.746 L3.516,16.976 L59.000,16.976 C59.553,16.976 60.000,17.422 60.000,17.973 C60.000,18.524 59.553,18.970 59.000,18.970 Z" class="cls-1"/>
</svg>
