<svg xmlns="http://www.w3.org/2000/svg" xmlns:xlink="http://www.w3.org/1999/xlink" preserveAspectRatio="xMidYMid" width="60" height="60" viewBox="0 0 60 60">
  <defs>
    <style>
      .cls-1 {
        fill: #000;
        fill-rule: evenodd;
      }
    </style>
  </defs>
  <path d="M30.000,59.999 C13.458,59.999 -0.000,46.541 -0.000,29.999 C-0.000,13.457 13.458,-0.001 30.000,-0.001 C46.542,-0.001 60.000,13.457 60.000,29.999 C60.000,46.541 46.542,59.999 30.000,59.999 ZM30.000,1.999 C14.561,1.999 2.000,14.560 2.000,29.999 C2.000,45.440 14.561,57.999 30.000,57.999 C45.440,57.999 58.000,45.440 58.000,29.999 C58.000,14.560 45.440,1.999 30.000,1.999 ZM35.707,42.706 C35.512,42.901 35.256,42.999 35.000,42.999 C34.744,42.999 34.488,42.901 34.293,42.706 L22.293,30.706 C21.902,30.316 21.902,29.683 22.293,29.291 L34.293,17.292 C34.684,16.901 35.316,16.901 35.707,17.292 C36.098,17.683 36.098,18.315 35.707,18.706 L24.414,29.999 L35.707,41.292 C36.098,41.682 36.098,42.315 35.707,42.706 Z" class="cls-1"/>
</svg>
