<svg xmlns="http://www.w3.org/2000/svg" xmlns:xlink="http://www.w3.org/1999/xlink" preserveAspectRatio="xMidYMid" width="60" height="35.91" viewBox="0 0 60 35.91">
  <defs>
    <style>
      .cls-1 {
        fill: #000;
        fill-rule: evenodd;
      }
    </style>
  </defs>
  <path d="M59.891,17.540 C59.898,17.555 59.912,17.566 59.919,17.581 C59.971,17.702 60.000,17.834 60.000,17.973 C60.000,18.113 59.971,18.245 59.919,18.366 C59.912,18.383 59.897,18.395 59.888,18.411 C59.838,18.513 59.776,18.609 59.695,18.687 C59.691,18.691 59.690,18.696 59.686,18.699 L41.686,35.651 C41.493,35.833 41.246,35.923 41.000,35.923 C40.734,35.923 40.470,35.819 40.274,35.610 C39.894,35.211 39.912,34.579 40.313,34.201 L56.485,18.971 L1.000,18.971 C0.447,18.971 0.000,18.525 0.000,17.973 C0.000,17.423 0.447,16.976 1.000,16.976 L56.485,16.976 L40.313,1.745 C39.912,1.368 39.894,0.737 40.274,0.336 C40.652,-0.065 41.284,-0.083 41.686,0.296 L59.686,17.248 C59.690,17.251 59.691,17.256 59.694,17.260 C59.777,17.339 59.840,17.436 59.891,17.540 Z" class="cls-1"/>
</svg>
