<?xml version="1.0" encoding="UTF-8"?>
<svg id="Ebene_1" xmlns="http://www.w3.org/2000/svg" version="1.1" xmlns:xlink="http://www.w3.org/1999/xlink" viewBox="0 0 36.3 60.2">
  <!-- Generator: Adobe Illustrator 29.1.0, SVG Export Plug-In . SVG Version: 2.1.0 Build 142)  -->
  <defs>
    <style>
      .st0, .st1 {
        fill: none;
      }

      .st2 {
        fill: #1d1d1b;
      }

      .st3 {
        clip-path: url(#clippath);
      }

      .st1 {
        stroke: #1d1d1b;
        stroke-width: .3px;
      }
    </style>
    <clipPath id="clippath">
      <rect class="st0" width="36.3" height="60.2"/>
    </clipPath>
  </defs>
  <g class="st3">
    <path class="st2" d="M35.2,59.8H1.1c-.4,0-.8-.4-.8-.8V7.4c0-.4.3-.8.8-.8h20.6c.4,0,.8.4.8.8s-.3.8-.8.8H5.5c-2,0-3.7,1.6-3.7,3.7v42.7c0,2,1.6,3.7,3.7,3.7h25.3c2,0,3.7-1.6,3.7-3.7V8.2h-6.3c-.4,0-.8-.4-.8-.8s.3-.8.8-.8h7c.4,0,.8.4.8.8v51.7c0,.4-.3.8-.8.8"/>
    <path class="st1" d="M35.2,59.8H1.1c-.4,0-.8-.4-.8-.8V7.4c0-.4.3-.8.8-.8h20.6c.4,0,.8.4.8.8s-.3.8-.8.8H5.5c-2,0-3.7,1.6-3.7,3.7v42.7c0,2,1.6,3.7,3.7,3.7h25.3c2,0,3.7-1.6,3.7-3.7V8.2h-6.3c-.4,0-.8-.4-.8-.8s.3-.8.8-.8h7c.4,0,.8.4.8.8v51.7c0,.4-.3.8-.8.8Z"/>
    <path class="st2" d="M28.2,15.2h-6.5c-.4,0-.8-.4-.8-.8V1.1c0-.4.3-.8.8-.8h6.5c.4,0,.8.4.8.8v13.2c0,.4-.3.8-.8.8"/>
    <path class="st1" d="M28.2,15.2h-6.5c-.4,0-.8-.4-.8-.8V1.1c0-.4.3-.8.8-.8h6.5c.4,0,.8.4.8.8v13.2c0,.4-.3.8-.8.8Z"/>
    <path class="st2" d="M28.2,23.8H8c-.4,0-.8-.4-.8-.8s.3-.8.8-.8h20.2c.4,0,.8.4.8.8s-.3.8-.8.8"/>
    <path class="st1" d="M28.2,23.8H8c-.4,0-.8-.4-.8-.8s.3-.8.8-.8h20.2c.4,0,.8.4.8.8s-.3.8-.8.8Z"/>
    <path class="st2" d="M28.2,37.8H8c-.4,0-.8-.4-.8-.8s.3-.8.8-.8h20.2c.4,0,.8.4.8.8s-.3.8-.8.8"/>
    <path class="st1" d="M28.2,37.8H8c-.4,0-.8-.4-.8-.8s.3-.8.8-.8h20.2c.4,0,.8.4.8.8s-.3.8-.8.8Z"/>
    <path class="st2" d="M28.2,52.6H8c-.4,0-.8-.4-.8-.8s.3-.8.8-.8h20.2c.4,0,.8.4.8.8s-.3.8-.8.8"/>
    <path class="st1" d="M28.2,52.6H8c-.4,0-.8-.4-.8-.8s.3-.8.8-.8h20.2c.4,0,.8.4.8.8s-.3.8-.8.8Z"/>
  </g>
</svg>