<?xml version="1.0" encoding="UTF-8"?>
<svg id="Ebene_1" xmlns="http://www.w3.org/2000/svg" version="1.1" xmlns:xlink="http://www.w3.org/1999/xlink" viewBox="0 0 49.2 60.2">
  <!-- Generator: Adobe Illustrator 29.1.0, SVG Export Plug-In . SVG Version: 2.1.0 Build 142)  -->
  <defs>
    <style>
      .st0 {
      fill: none;
      }

      .st1 {
      fill: #4D4D4D;
      }

      .st2 {
      clip-path: url(#clippath);
      }
    </style>
    <clipPath id="clippath">
      <rect class="st0" y="-.2" width="49.2" height="60.3"/>
    </clipPath>
  </defs>
  <g class="st2">
    <path class="st1" d="M2.4,2.3h31.4v11.4c0,.6.5,1,1,1h11.9v43H2.4V2.3ZM47.8,59.8c.6,0,1-.5,1-1V13.7c0-.3-.1-.5-.3-.7L35.6.5h0c0,0-.1,0-.2-.1,0,0-.1,0-.2-.1-.1,0-.3,0-.4,0H1.4C.8.2.4.7.4,1.2v57.5c0,.6.5,1,1,1h46.4Z"/>
    <path class="st1" d="M2.8,57.3h43.6V15.1h-11.5c-.8,0-1.4-.6-1.4-1.4V2.7H2.8v54.7ZM46.8,58.1H2.4c-.2,0-.4-.2-.4-.4V2.3c0-.2.2-.4.4-.4h31.4c.2,0,.4.2.4.4v11.4c0,.4.3.6.6.6h11.9c.2,0,.4.2.4.4v43c0,.2-.2.4-.4.4M1.4.6c-.4,0-.6.3-.6.6v57.5c0,.4.3.6.6.6h46.4c.4,0,.6-.3.6-.6V13.7c0-.2,0-.3-.2-.5L35.3.8s-.1,0-.1,0h-.1c0-.1-.2-.1-.2-.1H1.4ZM47.8,60.2H1.4C.6,60.2,0,59.5,0,58.7V1.2C0,.5.6-.2,1.4-.2h33.5c.2,0,.4,0,.5.1,0,0,.2,0,.2.1.1,0,.2.1.2.2l12.9,12.5c.3.3.4.6.4,1v45c0,.8-.6,1.4-1.4,1.4"/>
    <path class="st1" d="M32,25.5l-12.5,12.5-2.2-3.2c-.3-.5-1-.6-1.4-.3-.5.3-.6,1-.3,1.4l2.9,4.2c.2.3.4.4.7.4,0,0,0,0,0,0,.3,0,.5-.1.7-.3l13.4-13.4c.4-.4.4-1.1,0-1.4-.4-.4-1-.4-1.4,0"/>
    <path class="st1" d="M16.4,34.8c-.1,0-.2,0-.4.1-.3.2-.4.6-.2.9l2.9,4.2c.1.2.3.3.5.3h0c.2,0,.4,0,.5-.2l13.4-13.4c.2-.2.2-.7,0-.9s-.7-.2-.9,0l-12.5,12.5c0,0-.2.1-.3.1-.1,0-.2,0-.3-.2l-2.2-3.2c-.1-.2-.3-.3-.5-.3M19.3,41.1s0,0-.1,0c-.4,0-.8-.3-1-.6l-2.9-4.2c-.4-.6-.3-1.5.4-2,.6-.4,1.5-.3,2,.4l1.9,2.8,12.2-12.2c.6-.5,1.4-.5,2,0,.5.6.5,1.4,0,2l-13.4,13.4c-.3.3-.6.4-1,.4"/>
  </g>
</svg>