<?xml version="1.0" encoding="UTF-8"?>
<svg id="Ebene_1" xmlns="http://www.w3.org/2000/svg" version="1.1" viewBox="0 0 59.2 60.6">
  <!-- Generator: Adobe Illustrator 29.1.0, SVG Export Plug-In . SVG Version: 2.1.0 Build 142)  -->
  <defs>
    <style>
      .st0 {
        fill: none;
        stroke: #1d1d1b;
        stroke-miterlimit: 10;
        stroke-width: .5px;
      }

      .st1 {
        fill: #fff;
      }
    </style>
  </defs>
  <rect class="st1" x=".1" y="0" width="59" height="60.6" rx="7" ry="7"/>
  <path d="M52.8,12.1c-.5-.5-1.2-.5-1.7,0L16.8,46.2l-8.8-8.2c-.5-.4-1.2-.4-1.7,0-.4.5-.4,1.2,0,1.7l9.6,9c.2.2.5.3.8.3s.6-.1.8-.3L52.8,13.8c.5-.5.5-1.2,0-1.7Z"/>
  <path class="st0" d="M16.9,49c-.3,0-.6-.1-.8-.3l-9.6-9c-.5-.4-.5-1.2,0-1.7.4-.5,1.2-.5,1.7,0l8.8,8.2L51.1,12.1c.5-.5,1.2-.5,1.7,0,.5.5.5,1.2,0,1.7L17.7,48.7c-.2.2-.5.3-.8.3Z"/>
</svg>