<?xml version="1.0" encoding="UTF-8"?>
<svg id="Ebene_1" xmlns="http://www.w3.org/2000/svg" version="1.1" viewBox="0 0 74.4 55.6">
  <!-- Generator: Adobe Illustrator 29.1.0, SVG Export Plug-In . SVG Version: 2.1.0 Build 142)  -->
  <defs>
    <style>
      .st0 {
        fill: #1d1d1b;
      }
    </style>
  </defs>
  <path d="M39.9,33.2h3.5c1.1,0,1.9.9,1.9,1.9v3.5c0,1.1-.9,1.9-1.9,1.9h-3.5c-1.1,0-1.9-.9-1.9-1.9v-3.5c0-1.1.9-1.9,1.9-1.9Z"/>
  <path d="M39.9,19h3.5c1.1,0,1.9.9,1.9,1.9v3.5c0,1.1-.9,1.9-1.9,1.9h-3.5c-1.1,0-1.9-.9-1.9-1.9v-3.5c0-1.1.9-1.9,1.9-1.9Z"/>
  <path d="M25.7,19h3.5c1.1,0,1.9.9,1.9,1.9v3.5c0,1.1-.9,1.9-1.9,1.9h-3.5c-1.1,0-1.9-.9-1.9-1.9v-3.5c0-1.1.9-1.9,1.9-1.9Z"/>
  <path d="M11.6,19h3.5c1.1,0,1.9.9,1.9,1.9v3.5c0,1.1-.9,1.9-1.9,1.9h-3.5c-1.1,0-1.9-.9-1.9-1.9v-3.5c0-1.1.9-1.9,1.9-1.9Z"/>
  <rect x="23.8" y="33.2" width="7.4" height="7.4" rx="1.9" ry="1.9"/>
  <path d="M11.6,33.2h3.5c1.1,0,1.9.9,1.9,1.9v3.5c0,1.1-.9,1.9-1.9,1.9h-3.5c-1.1,0-1.9-.9-1.9-1.9v-3.5c0-1.1.9-1.9,1.9-1.9Z"/>
  <path d="M55,43.9V8.8c0-1.5-1.2-2.7-2.7-2.7h-15V1.7c0-.5-.4-.9-.9-.9s-.9.4-.9.9v4.4h-15.8V1.7c0-.5-.4-.9-.9-.9s-.9.4-.9.9v4.4H2.7c-1.5,0-2.7,1.2-2.7,2.7v44.2c0,1.5,1.2,2.7,2.7,2.7h18.6v-1.9H1.9V8h15.8v2.6c0,.5.4.9.9.9s.9-.4.9-.9v-2.6h15.8v2.6c0,.5.4.9.9.9s.9-.4.9-.9v-2.6h15.8v35.9s1.9,0,1.9,0Z"/>
  <path class="st0" d="M69.2,53.6c-.3-.2-.4-.5-.6-.9-.1-.4-.2-.8-.2-1.3s0-.9.2-1.2c.1-.4.3-.6.6-.8.3-.2.6-.3.9-.3s.7,0,.9.3c.3.2.5.5.6.8.1.4.2.8.2,1.3s0,.9-.2,1.3c-.1.4-.3.6-.6.8s-.6.3-.9.3-.7-.1-.9-.3M70.6,55.5c.3-.1.6-.3.8-.6.2-.2.3-.4.5-.7h0v1.3h2.2v-10.9h-2.3v4.1h0c0-.2-.2-.4-.4-.7-.2-.2-.4-.4-.7-.6-.3-.2-.7-.2-1.2-.2s-1.2.2-1.7.5c-.5.3-.9.8-1.2,1.4-.3.6-.5,1.4-.5,2.3s.1,1.7.4,2.3c.3.6.7,1.1,1.2,1.4.5.3,1.1.5,1.7.5s.8,0,1.1-.2M60,54c-.2-.2-.3-.4-.3-.7s0-.4.2-.5c.1-.1.3-.3.5-.3.2,0,.4-.1.7-.2.1,0,.3,0,.4,0,.2,0,.3,0,.5,0,.2,0,.3,0,.4-.1.1,0,.2,0,.3-.1v.9c0,.3,0,.5-.2.8-.1.2-.3.4-.6.5s-.6.2-.9.2-.6,0-.9-.2M61.3,55.6c.3-.1.6-.3.8-.5.2-.2.4-.4.5-.7h0v1.1h2.2v-5.5c0-.5,0-.9-.3-1.3-.2-.3-.4-.6-.8-.9-.3-.2-.7-.4-1.1-.5-.4-.1-.9-.2-1.3-.2-.7,0-1.2,0-1.7.3-.5.2-.9.5-1.2.8-.3.4-.5.8-.6,1.3l2.1.2c0-.3.2-.5.5-.7.2-.2.6-.3,1-.3s.7,0,.9.3c.2.2.3.4.3.8h0c0,.2,0,.3-.2.4-.1,0-.3.2-.6.2-.3,0-.7,0-1.2.1-.4,0-.8.1-1.2.2-.4,0-.7.2-1,.4-.3.2-.5.4-.7.7-.2.3-.3.7-.3,1.1s.1,1,.4,1.4c.2.4.6.6,1,.8.4.2.9.3,1.4.3s.8,0,1.1-.2M51.3,50c.1-.3.3-.4.5-.6.2-.1.5-.2.8-.2.5,0,.8.1,1.1.4.3.3.4.7.4,1.2v4.8h2.3v-5.2c0-.6-.1-1.2-.4-1.6-.2-.5-.6-.8-1-1.1-.4-.2-.9-.4-1.5-.4s-1.1.1-1.6.4c-.4.3-.7.7-.9,1.1h0v-1.4h-2.2v8.2h2.3v-4.7c0-.4,0-.7.2-.9M43.2,45.3c-.2-.2-.2-.3-.2-.6s0-.4.2-.6c.2-.2.4-.2.6-.3.2,0,.4,0,.6.2.2.2.2.4.2.6s0,.4-.2.6c-.2.2-.4.2-.6.2-.2,0-.4,0-.6-.2M44.7,46.3c.3-.2.5-.4.7-.6.2-.3.2-.6.2-.9s0-.6-.2-.9c-.2-.3-.4-.5-.7-.6-.3-.2-.6-.2-.9-.2s-.6,0-.9.2-.5.4-.7.6c-.2.3-.2.6-.2.9s0,.6.2.9c.2.3.4.5.7.6.3.2.6.2.9.2s.6,0,.9-.2M42.3,54c-.2-.2-.3-.4-.3-.7s0-.4.2-.5c.1-.1.3-.3.5-.3.2,0,.4-.1.7-.2.1,0,.3,0,.4,0,.2,0,.3,0,.5,0,.2,0,.3,0,.4-.1.1,0,.2,0,.3-.1v.9c0,.3,0,.5-.2.8-.1.2-.3.4-.6.5-.3.1-.6.2-.9.2s-.6,0-.9-.2M43.6,55.6c.3-.1.6-.3.8-.5.2-.2.4-.4.5-.7h0v1.1h2.2v-5.5c0-.5,0-.9-.3-1.3-.2-.3-.4-.6-.8-.9-.3-.2-.7-.4-1.1-.5-.4-.1-.9-.2-1.3-.2-.7,0-1.2,0-1.7.3-.5.2-.9.5-1.2.8-.3.4-.5.8-.6,1.3l2.1.2c0-.3.2-.5.5-.7.2-.2.6-.3,1-.3s.7,0,.9.3c.2.2.3.4.3.8h0c0,.2,0,.3-.2.4-.1,0-.3.2-.6.2-.3,0-.7,0-1.2.1-.4,0-.8.1-1.2.2-.4,0-.7.2-1,.4-.3.2-.5.4-.7.7-.2.3-.3.7-.3,1.1s.1,1,.4,1.4c.2.4.6.6,1,.8.4.2.9.3,1.4.3s.8,0,1.1-.2M29,55.6v-4.9c0-.3,0-.6.2-.8.1-.2.3-.4.5-.5.2-.1.4-.2.7-.2.4,0,.7.1.9.4.2.2.3.6.3,1v5.1h2.2v-5c0-.4.1-.8.3-1,.2-.3.6-.4,1-.4s.7.1.9.3c.2.2.4.6.4,1v5.1h2.3v-5.5c0-.9-.2-1.6-.7-2.1-.5-.5-1.1-.7-1.9-.7s-1.1.1-1.6.4c-.4.3-.7.7-.9,1.1h0c-.1-.5-.4-.9-.8-1.1-.4-.3-.9-.4-1.4-.4s-1,.1-1.4.4-.7.7-.9,1.1h0v-1.4h-2.2v8.2h2.3Z"/>
</svg>