<?xml version="1.0" encoding="UTF-8"?>
<svg id="Ebene_1" xmlns="http://www.w3.org/2000/svg" version="1.1" xmlns:xlink="http://www.w3.org/1999/xlink" viewBox="0 0 60.4 60.6">
  <!-- Generator: Adobe Illustrator 29.1.0, SVG Export Plug-In . SVG Version: 2.1.0 Build 142)  -->
  <defs>
    <style>
      .st0 {
        stroke: #575756;
        stroke-miterlimit: 28.3;
        stroke-width: .3px;
      }

      .st0, .st1 {
        fill: none;
      }

      .st2 {
        fill: #fff;
      }

      .st3 {
        fill: #575756;
      }

      .st4 {
        clip-path: url(#clippath);
      }
    </style>
    <clipPath id="clippath">
      <rect class="st1" x="20" y="10.4" width="22" height="39.9"/>
    </clipPath>
  </defs>
  <path class="st2" d="M.2,30.4c0,16.6,13.4,30,30,30s30-13.4,30-30S46.8.4,30.2.4.2,13.9.2,30.4"/>
  <g class="st4">
    <path class="st3" d="M29.8,44.5c-1.5,0-2.6,1.3-2.6,2.8s1.1,2.8,2.6,2.8,2.6-1.3,2.6-2.8-1-2.8-2.6-2.8M30.6,40.9c0-5.3,1-7.5,2.4-8.7,1.7-1.8,3.4-2.9,4.8-4.1,2.2-2,3.9-4.5,3.9-8.4s-4.2-8.9-10.8-8.9-10.5,4.7-10.5,7,.7,1.8,1.6,1.8,1.4-.6,1.8-1.6c1.5-3.1,3.3-5.3,6.8-5.3s7,2.9,7,7.3-.6,4.7-2.7,6.9c-1.6,1.9-3.4,3.4-4.4,5.1-1.2,1.8-1.7,4.1-1.7,8.9h1.8Z"/>
    <path class="st0" d="M29.8,44.5c-1.5,0-2.6,1.3-2.6,2.8s1.1,2.8,2.6,2.8,2.6-1.3,2.6-2.8-1-2.8-2.6-2.8ZM30.6,40.9c0-5.3,1-7.5,2.4-8.7,1.7-1.8,3.4-2.9,4.8-4.1,2.2-2,3.9-4.5,3.9-8.4s-4.2-8.9-10.8-8.9-10.5,4.7-10.5,7,.7,1.8,1.6,1.8,1.4-.6,1.8-1.6c1.5-3.1,3.3-5.3,6.8-5.3s7,2.9,7,7.3-.6,4.7-2.7,6.9c-1.6,1.9-3.4,3.4-4.4,5.1-1.2,1.8-1.7,4.1-1.7,8.9h1.8Z"/>
  </g>
</svg>