<?xml version="1.0" encoding="UTF-8"?>
<svg id="Ebene_1" xmlns="http://www.w3.org/2000/svg" version="1.1" viewBox="0 0 60.4 60.6">
  <!-- Generator: Adobe Illustrator 29.1.0, SVG Export Plug-In . SVG Version: 2.1.0 Build 142)  -->
  <defs>
    <style>
      .st0 {
        fill: #fff;
      }

      .st1 {
        fill: #575756;
      }
    </style>
  </defs>
  <path class="st0" d="M.2,30.4c0,16.6,13.4,30,30,30s30-13.4,30-30S46.8.4,30.2.4.2,13.9.2,30.4"/>
  <path class="st1" d="M36.2,34.6c-.5.6-1.1,1-1.7,1.3-.6.2-1.2.2-1.6,0l-5.8-3.3c-.8-.5-1.5-1-2.1-1.6-.6-.6-.9-1.4-.9-2.4s.2-1.6.7-2.3c.4-.6,1-1.1,1.5-1.3.6-.3,1.1-.3,1.6,0l6.1,3.5c.5.3,1,.6,1.4,1,.4.4.8.8,1.1,1.3.3.5.4,1,.4,1.6s-.2,1.6-.7,2.2M37.3,15c-.6-1.2-1.5-2.1-2.7-2.8-1.2-.7-2.5-1-4.1-1s-2.8.3-3.9.9c-1.1.6-2,1.4-2.7,2.4-.7,1-1,2.1-1,3.4s.2,1.9.6,2.7c.4.8.9,1.5,1.6,2.2h0c-.8.4-1.6.8-2.2,1.4s-1.2,1.3-1.5,2.1c-.4.8-.6,1.5-.6,2.3s.2,1.8.5,2.6c.3.7.7,1.4,1.2,2,.5.6,1,1,1.5,1.4.5.4,1,.7,1.4.9l6,3.5c.5.3,1,.6,1.5,1,.5.4,1,.8,1.3,1.3.4.5.5,1.2.5,2,0,1.1-.4,2-1.3,2.6s-1.9.8-3,.8-2.5-.4-3.5-1.2c-.9-.8-1.4-2-1.4-3.5h-3.6c0,1.7.4,3.1,1.1,4.3.7,1.2,1.7,2.1,3,2.8,1.3.6,2.7,1,4.4,1s2.6-.2,3.8-.7c1.2-.5,2.2-1.2,2.9-2.2.7-1,1.1-2.2,1.1-3.8s-.2-1.9-.5-2.8c-.4-.9-.9-1.6-1.6-2.3h0c.8-.3,1.5-.7,2.2-1.3.7-.6,1.2-1.3,1.6-2,.4-.8.6-1.5.6-2.3s-.2-1.8-.5-2.6c-.3-.7-.7-1.4-1.2-1.9-.5-.6-1-1-1.5-1.4-.5-.4-1-.7-1.4-.9l-6-3.5c-.5-.3-1-.6-1.5-1.1-.5-.4-1-.9-1.3-1.5-.4-.5-.5-1.1-.5-1.7s.1-1,.4-1.5c.3-.5.7-.9,1.3-1.3.6-.3,1.4-.5,2.3-.5,1.5,0,2.5.4,3.2,1.3.7.9,1,2,1,3.3h3.5c0-1.5-.3-2.9-.9-4.1"/>
</svg>