<?xml version="1.0" encoding="UTF-8"?>
<svg id="Ebene_1" xmlns="http://www.w3.org/2000/svg" version="1.1" xmlns:xlink="http://www.w3.org/1999/xlink" viewBox="0 0 60.4 60.6">
  <!-- Generator: Adobe Illustrator 29.1.0, SVG Export Plug-In . SVG Version: 2.1.0 Build 142)  -->
  <defs>
    <style>
      .st0 {
        stroke: #575756;
        stroke-miterlimit: 12.9;
        stroke-width: .3px;
      }

      .st0, .st1 {
        fill: none;
      }

      .st2 {
        fill: #fff;
      }

      .st3 {
        fill: #575756;
      }

      .st4 {
        clip-path: url(#clippath);
      }
    </style>
    <clipPath id="clippath">
      <rect class="st1" x="27.3" y="10.9" width="5.9" height="39.5"/>
    </clipPath>
  </defs>
  <path class="st2" d="M.2,30.4c0,16.6,13.4,30,30,30s30-13.4,30-30S46.8.4,30.2.4.2,13.9.2,30.4"/>
  <g class="st4">
    <path class="st3" d="M30.3,44.5c-1.5,0-2.6,1.3-2.6,2.7s1.1,2.7,2.6,2.7,2.6-1.3,2.6-2.7-1-2.7-2.6-2.7M31.1,41.2c.7-13.8,1.5-21.4,1.5-28.3s-.6-1.6-2.3-1.6-2.2.3-2.2,1.6c0,7,.7,14.5,1.4,28.3h1.6Z"/>
    <path class="st0" d="M30.3,44.5c-1.5,0-2.6,1.3-2.6,2.7s1.1,2.7,2.6,2.7,2.6-1.3,2.6-2.7-1-2.7-2.6-2.7ZM31.1,41.2c.7-13.8,1.5-21.4,1.5-28.3s-.6-1.6-2.3-1.6-2.2.3-2.2,1.6c0,7,.7,14.5,1.4,28.3h1.6Z"/>
  </g>
</svg>