<?xml version="1.0" encoding="UTF-8"?>
<svg id="Ebene_1" xmlns="http://www.w3.org/2000/svg" version="1.1" xmlns:xlink="http://www.w3.org/1999/xlink" viewBox="0 0 60.5 60.2">
  <!-- Generator: Adobe Illustrator 29.1.0, SVG Export Plug-In . SVG Version: 2.1.0 Build 142)  -->
  <defs>
    <style>
      .st0 {
        stroke: #1d1d1b;
        stroke-miterlimit: 10;
        stroke-width: .4px;
      }

      .st0, .st1 {
        fill: none;
      }

      .st2 {
        fill: #1d1d1b;
      }

      .st3 {
        clip-path: url(#clippath);
      }
    </style>
    <clipPath id="clippath">
      <rect class="st1" width="60.2" height="60.2"/>
    </clipPath>
  </defs>
  <g class="st3">
    <path class="st2" d="M30.1,2.1C14.6,2.1,2.1,14.6,2.1,30.1s12.6,28,28,28,28-12.6,28-28S45.5,2.1,30.1,2.1M30.1,59.7C13.7,59.7.5,46.4.5,30.1S13.7.5,30.1.5s29.6,13.3,29.6,29.6-13.3,29.6-29.6,29.6"/>
    <path class="st0" d="M30.1,2.1C14.6,2.1,2.1,14.6,2.1,30.1s12.6,28,28,28,28-12.6,28-28S45.5,2.1,30.1,2.1ZM30.1,59.7C13.7,59.7.5,46.4.5,30.1S13.7.5,30.1.5s29.6,13.3,29.6,29.6-13.3,29.6-29.6,29.6Z"/>
    <path class="st2" d="M20.9,42.9c-.2,0-.4,0-.5-.2l-6.6-6.2c-.3-.3-.3-.8,0-1.1.3-.3.8-.3,1.1,0l6,5.7,23.5-23.4c.3-.3.8-.3,1.1,0,.3.3.3.8,0,1.1l-24.1,23.9c-.2.2-.4.2-.6.2"/>
    <path class="st0" d="M20.9,42.9c-.2,0-.4,0-.5-.2l-6.6-6.2c-.3-.3-.3-.8,0-1.1.3-.3.8-.3,1.1,0l6,5.7,23.5-23.4c.3-.3.8-.3,1.1,0,.3.3.3.8,0,1.1l-24.1,23.9c-.2.2-.4.2-.6.2Z"/>
  </g>
</svg>