<?xml version="1.0" encoding="UTF-8"?>
<svg id="Ebene_1" xmlns="http://www.w3.org/2000/svg" version="1.1" viewBox="0 0 60.5 60.2">
  <!-- Generator: Adobe Illustrator 29.1.0, SVG Export Plug-In . SVG Version: 2.1.0 Build 142)  -->
  <defs>
    <style>
      .st0 {
        fill: #00a986;
      }

      .st1 {
        fill: #fff;
      }

      .st2 {
        fill: none;
        stroke: #fff;
        stroke-miterlimit: 10;
        stroke-width: .4px;
      }
    </style>
  </defs>
  <path class="st0" d="M30.2,59.9c16.4,0,29.7-13.3,29.7-29.8S46.6.4,30.2.4.5,13.7.5,30.2s13.3,29.8,29.7,29.8"/>
  <path class="st1" d="M48.6,11.6C38.5,1.3,22,1.3,11.9,11.6c-4.9,5-7.6,11.6-7.6,18.6s2.7,13.6,7.6,18.6c5.1,5.1,11.7,7.7,18.4,7.7s13.3-2.6,18.4-7.7c10.1-10.3,10.1-27,0-37.2ZM47.6,47.8c-9.6,9.7-25.1,9.7-34.7,0-4.6-4.7-7.2-10.9-7.2-17.6s2.5-12.9,7.2-17.6c4.8-4.8,11.1-7.3,17.3-7.3s12.6,2.4,17.3,7.3c9.6,9.7,9.6,25.5,0,35.2Z"/>
  <path class="st2" d="M30.2,5.3c-6.3,0-12.6,2.4-17.3,7.3-4.6,4.7-7.2,10.9-7.2,17.6s2.5,12.9,7.2,17.6c9.6,9.7,25.1,9.7,34.7,0,9.6-9.7,9.6-25.5,0-35.2-4.8-4.8-11.1-7.3-17.3-7.3ZM30.2,56.5c-6.6,0-13.3-2.6-18.4-7.7-4.9-5-7.6-11.6-7.6-18.6s2.7-13.6,7.6-18.6c10.1-10.3,26.6-10.3,36.7,0,10.1,10.3,10.1,27,0,37.2-5.1,5.1-11.7,7.7-18.4,7.7Z"/>
  <path class="st1" d="M45.3,18.6c-.2-.2-.4-.3-.6-.3h0c-.2,0-.5,0-.6.3l-21,21.2-5.3-5c-.2-.2-.4-.3-.7-.2-.2,0-.5.1-.6.3-.3.4-.3,1,0,1.3l5.9,5.6c.2.2.4.2.6.2s.5,0,.6-.3l21.6-21.8c.4-.4.4-.9,0-1.3Z"/>
</svg>