<?xml version="1.0" encoding="UTF-8"?>
<svg id="Ebene_1" xmlns="http://www.w3.org/2000/svg" version="1.1" viewBox="0 0 62.8 61.8">
  <!-- Generator: Adobe Illustrator 29.1.0, SVG Export Plug-In . SVG Version: 2.1.0 Build 142)  -->
  <defs>
    <style>
      .st0 {
        fill: #fff;
      }

      .st1 {
        fill: #575756;
      }
    </style>
  </defs>
  <path class="st0" d="M31.4,61.7c16.9,0,30.6-13.5,30.6-30.2S48.3,1.3,31.4,1.3.8,14.8.8,31.5s13.7,30.2,30.6,30.2"/>
  <path class="st1" d="M47.8,34.8c.6-.3,1-.8,1.4-1.4.4-.6.5-1.2.5-1.9,0-1-.4-1.9-1.2-2.7-.8-.7-1.7-1.1-2.7-1.1s-2,.4-2.7,1.1c-.8.7-1.1,1.6-1.1,2.7s.4,2,1.1,2.7c.8.8,1.7,1.1,2.7,1.1s1.3-.2,1.9-.5M33.3,34.8c.6-.3,1-.8,1.4-1.4.4-.6.5-1.2.5-1.9,0-1-.4-1.9-1.2-2.7-.8-.7-1.7-1.1-2.7-1.1s-2,.4-2.7,1.1c-.8.7-1.1,1.6-1.1,2.7s.4,2,1.1,2.7c.8.8,1.7,1.1,2.7,1.1s1.3-.2,1.9-.5M18.9,34.8c.6-.3,1-.8,1.4-1.4.4-.6.5-1.2.5-1.9,0-1-.4-1.9-1.2-2.7-.8-.7-1.7-1.1-2.7-1.1s-2,.4-2.7,1.1c-.8.7-1.1,1.6-1.1,2.7s.4,2,1.1,2.7c.8.8,1.7,1.1,2.7,1.1s1.3-.2,1.9-.5"/>
</svg>