<?xml version="1.0" encoding="UTF-8"?>
<svg id="Ebene_1" xmlns="http://www.w3.org/2000/svg" version="1.1" xmlns:xlink="http://www.w3.org/1999/xlink" viewBox="0 0 61.9 60.6">
  <!-- Generator: Adobe Illustrator 29.1.0, SVG Export Plug-In . SVG Version: 2.1.0 Build 142)  -->
  <defs>
    <style>
      .st0 {
        fill: #c8d5de;
      }

      .st1 {
        fill: none;
      }

      .st2 {
        fill: #575756;
      }

      .st3 {
        clip-path: url(#clippath);
      }
    </style>
    <clipPath id="clippath">
      <rect class="st1" x=".4" y=".2" width="61" height="60.3"/>
    </clipPath>
  </defs>
  <g class="st3">
    <path class="st0" d="M30.9,60.4c16.9,0,30.5-13.5,30.5-30.1S47.7.2,30.9.2.4,13.6.4,30.3s13.7,30.1,30.5,30.1"/>
  </g>
  <path class="st2" d="M47.3,33.6c.6-.3,1-.8,1.4-1.4.4-.6.5-1.2.5-1.9,0-1-.4-1.9-1.2-2.7-.8-.7-1.7-1.1-2.7-1.1s-2,.4-2.7,1.1c-.8.7-1.1,1.6-1.1,2.7s.4,2,1.1,2.7c.8.8,1.7,1.1,2.7,1.1s1.3-.2,1.9-.5M32.9,33.6c.6-.3,1-.8,1.4-1.4.4-.6.5-1.2.5-1.9,0-1-.4-1.9-1.2-2.7-.8-.7-1.7-1.1-2.7-1.1s-2,.4-2.7,1.1c-.8.7-1.1,1.6-1.1,2.7s.4,2,1.1,2.7c.8.8,1.7,1.1,2.7,1.1s1.3-.2,1.9-.5M18.4,33.6c.6-.3,1-.8,1.4-1.4.4-.6.5-1.2.5-1.9,0-1-.4-1.9-1.2-2.7-.8-.7-1.7-1.1-2.7-1.1s-2,.4-2.7,1.1c-.8.7-1.1,1.6-1.1,2.7s.4,2,1.1,2.7c.8.8,1.7,1.1,2.7,1.1s1.3-.2,1.9-.5"/>
</svg>