<?xml version="1.0" encoding="UTF-8"?>
<svg id="Ebene_1" xmlns="http://www.w3.org/2000/svg" version="1.1" xmlns:xlink="http://www.w3.org/1999/xlink" viewBox="0 0 59.8 53.3">
  <!-- Generator: Adobe Illustrator 29.1.0, SVG Export Plug-In . SVG Version: 2.1.0 Build 142)  -->
  <defs>
    <style>
      .st0 {
        fill: #262626;
      }

      .st1 {
        fill: none;
      }

      .st2 {
        clip-path: url(#clippath);
      }
    </style>
    <clipPath id="clippath">
      <rect class="st1" width="59.8" height="53.3"/>
    </clipPath>
  </defs>
  <g class="st2">
    <path class="st0" d="M59,53.3H.8C.4,53.3,0,53,0,52.5s.4-.8.8-.8h58.2c.5,0,.8.4.8.8s-.4.8-.8.8"/>
    <path class="st0" d="M24.9,42.8h0,0ZM16.3,36.9l.5,8.1,7.6-2.9L47,7.2l-8.1-5.3-22.6,34.9ZM16,47c-.2,0-.3,0-.4-.1-.2-.1-.4-.4-.4-.6l-.6-9.5c0-.2,0-.4.1-.5L38,.4c.2-.4.8-.5,1.1-.2l9.5,6.1c.2.1.3.3.4.5,0,.2,0,.4-.1.6l-23.2,35.8c0,.1-.2.3-.4.3l-8.9,3.4c0,0-.2,0-.3,0"/>
  </g>
</svg>