<?xml version="1.0" encoding="UTF-8"?>
<svg id="Ebene_1" xmlns="http://www.w3.org/2000/svg" version="1.1" xmlns:xlink="http://www.w3.org/1999/xlink" viewBox="0 0 60.5 60.2">
  <!-- Generator: Adobe Illustrator 29.1.0, SVG Export Plug-In . SVG Version: 2.1.0 Build 142)  -->
  <defs>
    <style>
      .st0 {
        stroke: #1d1d1b;
        stroke-miterlimit: 10;
        stroke-width: .4px;
      }

      .st0, .st1 {
        fill: none;
      }

      .st2 {
        fill: #1d1d1b;
      }

      .st3 {
        clip-path: url(#clippath);
      }
    </style>
    <clipPath id="clippath">
      <rect class="st1" width="60.5" height="60.5"/>
    </clipPath>
  </defs>
  <g class="st3">
    <path class="st2" d="M30.2,2.1c-7.2,0-14.4,2.7-19.9,8.2C5.1,15.7,2.1,22.7,2.1,30.2s2.9,14.6,8.2,19.9c11,11,28.8,11,39.8,0,11-11,11-28.8,0-39.8-5.5-5.5-12.7-8.2-19.9-8.2M30.2,60c-7.6,0-15.2-2.9-21-8.7C3.6,45.7.5,38.2.5,30.2S3.6,14.8,9.2,9.2c11.6-11.6,30.5-11.6,42.1,0,11.6,11.6,11.6,30.5,0,42.1-5.8,5.8-13.4,8.7-21,8.7"/>
    <path class="st0" d="M30.2,2.1c-7.2,0-14.4,2.7-19.9,8.2C5.1,15.7,2.1,22.7,2.1,30.2s2.9,14.6,8.2,19.9c11,11,28.8,11,39.8,0,11-11,11-28.8,0-39.8-5.5-5.5-12.7-8.2-19.9-8.2ZM30.2,60c-7.6,0-15.2-2.9-21-8.7C3.6,45.7.5,38.2.5,30.2S3.6,14.8,9.2,9.2c11.6-11.6,30.5-11.6,42.1,0,11.6,11.6,11.6,30.5,0,42.1-5.8,5.8-13.4,8.7-21,8.7Z"/>
    <path class="st2" d="M18.1,43.2c-.2,0-.4,0-.6-.2-.3-.3-.3-.8,0-1.2l24.1-24.1c.3-.3.8-.3,1.2,0,.3.3.3.8,0,1.2l-24.1,24.1c-.2.2-.4.2-.6.2"/>
    <path class="st0" d="M18.1,43.2c-.2,0-.4,0-.6-.2-.3-.3-.3-.8,0-1.2l24.1-24.1c.3-.3.8-.3,1.2,0,.3.3.3.8,0,1.2l-24.1,24.1c-.2.2-.4.2-.6.2Z"/>
    <path class="st2" d="M42.1,43.2c-.2,0-.4,0-.6-.2l-24.1-24.1c-.3-.3-.3-.8,0-1.2.3-.3.8-.3,1.2,0l24.1,24.1c.3.3.3.8,0,1.2-.2.2-.4.2-.6.2"/>
    <path class="st0" d="M42.1,43.2c-.2,0-.4,0-.6-.2l-24.1-24.1c-.3-.3-.3-.8,0-1.2.3-.3.8-.3,1.2,0l24.1,24.1c.3.3.3.8,0,1.2-.2.2-.4.2-.6.2Z"/>
  </g>
</svg>