<?xml version="1.0" encoding="UTF-8"?>
<svg id="Ebene_1" xmlns="http://www.w3.org/2000/svg" version="1.1" xmlns:xlink="http://www.w3.org/1999/xlink" viewBox="0 0 74.2 60.2">
  <!-- Generator: Adobe Illustrator 29.1.0, SVG Export Plug-In . SVG Version: 2.1.0 Build 142)  -->
  <defs>
    <style>
      .st0 {
        fill: none;
      }

      .st1 {
        fill: #1d1d1b;
      }

      .st2 {
        clip-path: url(#clippath);
      }
    </style>
    <clipPath id="clippath">
      <rect class="st0" x=".6" y=".4" width="72.9" height="59.7"/>
    </clipPath>
  </defs>
  <g class="st2">
    <path class="st1" d="M37.1,2.5l33.2,15.5-33.2,16.7L3.9,18.1,37.1,2.5ZM1.2,18.9l35.4,17.8c.1,0,.3.1.4.1s.3,0,.4-.1l35.5-17.8c.3-.2.6-.5.5-.9,0-.4-.2-.7-.6-.9L37.5.5c-.3-.1-.6-.1-.8,0L1.2,17.1c-.3.2-.6.5-.6.9,0,.4.2.7.5.9"/>
    <path class="st1" d="M72.9,28.5l-7.7-3.6c-.5-.2-1.1,0-1.3.5-.2.5,0,1.1.5,1.3l5.9,2.7-33.2,16.7L3.9,29.5l5.7-2.7c.5-.2.7-.8.5-1.3s-.8-.7-1.3-.5l-7.6,3.6c-.3.2-.6.5-.6.9,0,.4.2.7.5.9l35.4,17.8c.1,0,.3.1.4.1s.3,0,.4-.1l35.5-17.8c.3-.2.6-.5.5-.9,0-.4-.2-.7-.6-.9"/>
    <path class="st1" d="M72.9,40.4l-7.7-3.6c-.5-.2-1.1,0-1.3.5-.2.5,0,1.1.5,1.3l5.9,2.7-33.2,16.7L3.9,41.4l5.7-2.7c.5-.2.7-.8.5-1.3-.2-.5-.8-.7-1.3-.5l-7.6,3.6c-.3.2-.6.5-.6.9,0,.4.2.7.5.9l35.4,17.8c.1,0,.3.1.4.1s.3,0,.4-.1l35.5-17.8c.3-.2.6-.5.5-.9,0-.4-.2-.7-.6-.9"/>
  </g>
  <polygon class="st1" points="36.7 36 36.7 47.2 72.5 28.4 63 23.8 36.7 36"/>
  <polygon class="st1" points="1.7 28.9 37.5 47.2 37.1 36.5 12.2 23.2 1.7 28.9"/>
</svg>