<svg xmlns="http://www.w3.org/2000/svg" xmlns:xlink="http://www.w3.org/1999/xlink" preserveAspectRatio="xMidYMid" width="60" height="44" viewBox="0 0 60 44">
  <defs>
    <style>
      .cls-1 {
        fill: #000;
        fill-rule: evenodd;
      }
    </style>
  </defs>
  <path d="M59.000,22.999 L1.000,22.999 C0.448,22.999 0.000,22.552 0.000,22.000 C0.000,21.447 0.448,20.999 1.000,20.999 L59.000,20.999 C59.552,20.999 60.000,21.447 60.000,22.000 C60.000,22.552 59.552,22.999 59.000,22.999 ZM59.000,2.000 L1.000,2.000 C0.448,2.000 0.000,1.552 0.000,1.000 C0.000,0.447 0.448,-0.001 1.000,-0.001 L59.000,-0.001 C59.552,-0.001 60.000,0.447 60.000,1.000 C60.000,1.552 59.552,2.000 59.000,2.000 ZM1.000,41.999 L59.000,41.999 C59.552,41.999 60.000,42.447 60.000,43.000 C60.000,43.552 59.552,44.000 59.000,44.000 L1.000,44.000 C0.448,44.000 0.000,43.552 0.000,43.000 C0.000,42.447 0.448,41.999 1.000,41.999 Z" class="cls-1"/>
</svg>
