<svg xmlns="http://www.w3.org/2000/svg" xmlns:xlink="http://www.w3.org/1999/xlink" preserveAspectRatio="xMidYMid" width="59.812" height="59.88" viewBox="0 0 59.812 59.88">
  <defs>
    <style>
      .cls-1 {
        fill: #000;
        fill-rule: evenodd;
      }
    </style>
  </defs>
  <path d="M59.466,33.656 C59.275,33.830 59.035,33.915 58.797,33.915 C58.526,33.915 58.255,33.805 58.058,33.586 L53.815,28.894 L53.815,57.880 C53.815,58.982 52.921,59.877 51.822,59.877 L40.862,59.877 C39.762,59.877 38.869,58.982 38.869,57.880 L38.869,38.908 L20.934,38.908 L20.934,57.880 C20.934,58.982 20.040,59.877 18.941,59.877 L7.981,59.877 C6.882,59.877 5.988,58.982 5.988,57.880 L5.988,28.893 L1.743,33.586 C1.373,33.995 0.744,34.027 0.336,33.656 C-0.072,33.285 -0.103,32.655 0.266,32.245 L29.163,0.291 C29.541,-0.125 30.261,-0.125 30.640,0.291 L59.535,32.245 C59.904,32.655 59.873,33.285 59.466,33.656 ZM29.901,2.449 L7.981,26.689 L7.981,57.880 L18.941,57.880 L18.941,38.908 C18.941,37.806 19.835,36.910 20.934,36.910 L38.869,36.910 C39.968,36.910 40.862,37.806 40.862,38.908 L40.862,57.880 L51.822,57.880 L51.822,26.690 L29.901,2.449 Z" class="cls-1"/>
</svg>
