<?xml version="1.0" encoding="UTF-8"?>
<svg id="Ebene_1" xmlns="http://www.w3.org/2000/svg" version="1.1" xmlns:xlink="http://www.w3.org/1999/xlink" viewBox="0 0 65.4 60.6">
  <!-- Generator: Adobe Illustrator 29.1.0, SVG Export Plug-In . SVG Version: 2.1.0 Build 142)  -->
  <defs>
    <style>
      .st0 {
        fill: none;
      }

      .st1 {
        fill: #1d1d1b;
      }

      .st2 {
        clip-path: url(#clippath);
      }
    </style>
    <clipPath id="clippath">
      <polygon class="st0" points="1.7 58.8 65.3 58.8 64.3 1.5 1.7 1.5 1.7 58.8"/>
    </clipPath>
  </defs>
  <g class="st2">
    <path class="st1" d="M2.7,58.6h42.3c.4,0,.8-.3.8-.8v-20.3c0-.4-.3-.8-.8-.8s-.8.3-.8.8v19.6H3.5V3.3h40.7v20.7c0,.4.3.8.8.8s.8-.3.8-.8V2.6c0-.4-.3-.8-.8-.8H2.7c-.4,0-.8.3-.8.8v55.2c0,.4.3.8.8.8"/>
    <path class="st1" d="M45,37c.3,0,.5.2.5.5v20.3c0,.3-.2.5-.5.5H2.7c-.3,0-.5-.2-.5-.5V2.6c0-.3.2-.5.5-.5h42.3c.3,0,.5.2.5.5v21.5c0,.3-.2.5-.5.5s-.5-.2-.5-.5V3.3c0-.2-.1-.3-.3-.3H3.5c-.2,0-.3.1-.3.3v53.7c0,.2.1.3.3.3h40.7c.2,0,.3-.1.3-.3v-19.6c0-.3.2-.5.5-.5M2.7,58.8h42.3c.6,0,1.1-.5,1.1-1.1v-20.3c0-.6-.5-1.1-1.1-1.1s-1.1.5-1.1,1.1v19.3H3.8V3.6h40.1v20.4c0,.6.5,1.1,1.1,1.1s1.1-.5,1.1-1.1V2.6c0-.6-.5-1.1-1.1-1.1H2.7c-.6,0-1.1.5-1.1,1.1v55.2c0,.6.5,1.1,1.1,1.1"/>
    <path class="st1" d="M29.4,31.5h32.8c.4,0,.8-.3.8-.8s-.3-.8-.8-.8H29.4c-.4,0-.8.3-.8.8s.3.8.8.8"/>
    <path class="st1" d="M62.3,30.3c.3,0,.5.2.5.5s-.2.5-.5.5H29.4c-.3,0-.5-.2-.5-.5s.2-.5.5-.5h32.8ZM29.4,31.8h32.8c.6,0,1.1-.5,1.1-1.1s-.5-1.1-1.1-1.1H29.4c-.6,0-1.1.5-1.1,1.1s.5,1.1,1.1,1.1"/>
    <path class="st1" d="M55.3,37.2c.2,0,.3,0,.4-.1l8-5.7c.2-.1.3-.4.3-.6s-.1-.5-.3-.6l-8-5.7c-.3-.2-.8-.2-1.1.2-.2.3-.2.8.2,1.1l7.1,5.1-7.1,5.1c-.3.2-.4.7-.2,1.1.2.2.4.3.6.3"/>
    <path class="st1" d="M55.3,24.6c0,0,.2,0,.3,0l8,5.7c.1,0,.2.2.2.4s0,.3-.2.4l-8,5.7c-.2.1-.5,0-.7-.1,0-.1-.1-.2,0-.4,0-.1,0-.2.2-.3l7.1-5.1c0,0,.1-.1.1-.2s0-.2-.1-.2l-7.1-5.1c-.1,0-.2-.2-.2-.3,0-.1,0-.3,0-.4,0-.1.2-.2.4-.2M55.3,37.5c.2,0,.4,0,.6-.2l8-5.7c.3-.2.4-.5.4-.9s-.2-.7-.4-.9l-8-5.7c-.5-.3-1.1-.2-1.5.2-.2.2-.2.5-.2.8,0,.3.2.5.4.7l6.8,4.8-6.8,4.8c-.2.2-.4.4-.4.7,0,.3,0,.6.2.8.2.3.5.4.9.4"/>
  </g>
</svg>