<?xml version="1.0" encoding="UTF-8"?>
<svg id="Ebene_1" xmlns="http://www.w3.org/2000/svg" version="1.1" viewBox="0 0 52.9 52.6">
  <!-- Generator: Adobe Illustrator 29.1.0, SVG Export Plug-In . SVG Version: 2.1.0 Build 142)  -->
  <style>
    .st0 {
    fill: none;
    }

    .st1 {
    fill: #4D4D4D;
    }

    .st2 {
    clip-path: url(#clippath);
    }
  </style>
  <g class="st0">
    <path class="st1" d="M52.6,27.3L26.9,1.6c-.3-.3-1-.3-1.4,0L0,27.3c-.4.4-.4,1,0,1.4.4.4,1,.4,1.4,0l5.3-5.3v28.4c0,.5.4,1,1,1h37.5c.5,0,1-.4,1-1v-28.4l5.3,5.3c.2.2.4.3.7.3s.5,0,.7-.3c.2-.2.3-.4.3-.7s-.1-.5-.3-.7ZM44.1,21.6v29.2H8.5v-29.2c0,0,0-.1,0-.2L26.3,3.6l17.8,17.8c0,0,0,.1,0,.2Z"/>
    <path class="st1" d="M18.5,34.2c-.2-.4-.7-.5-1.1-.3-.4.2-.5.7-.3,1.1l4,7.1c.1.2.4.4.6.4,0,0,0,0,0,0,.2,0,.5-.1.6-.3l13.6-15.4c.3-.3.3-.9,0-1.1-.3-.3-.9-.3-1.2,0l-12.8,14.6-3.5-6.1Z"/>
  </g>

</svg>