<?xml version="1.0" encoding="UTF-8"?>
<svg id="Ebene_1" xmlns="http://www.w3.org/2000/svg" version="1.1" viewBox="0 0 52.9 52.6">
  <!-- Generator: Adobe Illustrator 29.1.0, SVG Export Plug-In . SVG Version: 2.1.0 Build 142)  -->
  <path d="M33.8,50.9H13v-9.8c0-8,6.5-14.6,14.6-14.6s10.5,3.1,13,8c.2.4.7.6,1.2.4.2-.1.4-.3.4-.5,0-.2,0-.5,0-.7-2-4-5.6-7-9.8-8.3,4.6-2,7.7-6.6,7.7-11.7S34.2,1.1,27.2,1.1s-7.7,1.9-10,4.9c-.1-.1-.2-.2-.4-.2-.6,0-1.1-.1-1.7-.1-6.4,0-11.6,5.2-11.6,11.6s3,9,7.1,10.7C4.5,29.7,0,35.4,0,42.3v9.8c0,.4.3.7.7.7h9.9c.2,0,.9,0,1.5-.1,0,0,0,0,0,0h21.7c.5,0,.9-.4.9-.9s-.4-.9-.9-.9ZM22.8,23.9c-.2-.1-.3-.2-.5-.2-3.6-1.8-6.1-5.5-6.1-9.8S21.2,2.8,27.2,2.8s11,4.9,11,11-4.9,11-11,11-3.1-.3-4.4-.9ZM15.3,18.1s0,0,0,0h0s0,0,0,0Z"/>
  <path d="M52.3,37.7c-.3-.3-.7-.2-1,0l-11,12.7-3-5.3c-.2-.3-.6-.5-1-.3-.3.2-.5.6-.3,1l3.5,6.2c.1.2.3.3.5.4,0,0,0,0,0,0,.2,0,.4,0,.5-.2l11.7-13.5c.3-.3.2-.7,0-1Z"/>
</svg>