<?xml version="1.0" encoding="UTF-8"?>
<svg id="Ebene_1" xmlns="http://www.w3.org/2000/svg" version="1.1" viewBox="0 0 48.9 55.8">
  <!-- Generator: Adobe Illustrator 29.1.0, SVG Export Plug-In . SVG Version: 2.1.0 Build 142)  -->
  <path d="M20.8,27.2c.6,0,1-.5,1-1V6.7c0-.3-.1-.5-.3-.7L15.9.6c-.2-.2-.4-.3-.7-.3H.8C.2.3-.2.8-.2,1.4v24.8c0,.6.5,1,1,1h20ZM16.3,5.3v-1.5l2,2h-1.6c-.3,0-.5-.2-.5-.5ZM15.2,7.8h4.4s0,0,.1,0v17.4H1.8V2.4h12.4v4.4c0,.6.5,1,1,1Z"/>
  <path d="M16.8,29.8v2.8h0s0,1.5,0,1.5c0,.3.2.5.5.5h1.6,0s2.9,0,2.9,0l-5-4.8Z"/>
  <path d="M14.7,35.7v-6.5H1.3c-.6,0-1,.5-1,1v24.8c0,.6.5,1,1,1h20c.6,0,1-.5,1-1v-18.5h-6.8c-.4-.1-.7-.4-.8-.8Z"/>
  <path d="M47.2,27.2c.6,0,1-.5,1-1V6.7c0-.3-.1-.5-.3-.7l-5.6-5.4c-.2-.2-.4-.3-.7-.3h-14.4c-.6,0-1,.5-1,1v24.8c0,.6.5,1,1,1h20ZM42.7,5.3v-1.5l2,2h-1.6c-.3,0-.5-.2-.5-.5ZM41.7,7.8h4.4s0,0,.1,0v17.4h-18V2.4h12.4v4.4c0,.6.5,1,1,1Z"/>
  <path d="M48.4,34.9l-5.6-5.4c-.2-.2-.4-.3-.7-.3h-14.4c-.6,0-1,.5-1,1v24.8c0,.6.5,1,1,1h20c.6,0,1-.5,1-1v-19.4c0-.3-.1-.5-.3-.7ZM43.2,34.1v-1.5l2,2h-1.6c-.3,0-.5-.2-.5-.5ZM42.2,36.6h4.4s0,0,.1,0v17.4h-18v-22.8h12.4v4.4c0,.6.5,1,1,1Z"/>
</svg>