<?xml version="1.0" encoding="UTF-8"?>
<svg id="Ebene_1" xmlns="http://www.w3.org/2000/svg" version="1.1" viewBox="0 0 48.9 55.8">
  <!-- Generator: Adobe Illustrator 29.1.0, SVG Export Plug-In . SVG Version: 2.1.0 Build 142)  -->
  <path d="M1,27.3h19.9c.6,0,1-.5,1-1V7c0-.3-.1-.5-.3-.7L16.1.9c-.2-.2-.4-.3-.7-.3H1C.5.6,0,1.1,0,1.6v24.7c0,.6.5,1,1,1ZM16.4,5.5v-1.5l2,2h-1.6c-.3,0-.5-.2-.5-.5ZM15.4,8h4.4s0,0,.1,0v17.3H2V2.6h12.3v4.3c0,.6.5,1,1,1Z"/>
  <path d="M47.2,27.3c.6,0,1-.5,1-1V7c0-.3-.1-.5-.3-.7l-5.6-5.4c-.2-.2-.4-.3-.7-.3h-14.4c-.6,0-1,.5-1,1v24.7c0,.6.5,1,1,1h19.9ZM42.7,5.5v-1.5l2,2h-1.6c-.3,0-.5-.2-.5-.5ZM41.7,8h4.4s0,0,.1,0v17.3h-17.9V2.6h12.3v4.3c0,.6.5,1,1,1Z"/>
  <path d="M48.4,35l-5.6-5.4c-.2-.2-.4-.3-.7-.3h-14.4c-.6,0-1,.5-1,1v24.7c0,.6.5,1,1,1h19.9c.6,0,1-.5,1-1v-19.4c0-.3-.1-.5-.3-.7ZM43.2,34.3v-1.5l2,2h-1.6c-.3,0-.5-.2-.5-.5ZM42.2,36.7h4.4s0,0,.1,0v17.3h-17.9v-22.7h12.3v4.3c0,.6.5,1,1,1Z"/>
  <path d="M16.4,29.6c-.2-.2-.4-.3-.7-.3H1.3c-.6,0-1,.5-1,1v24.7c0,.6.5,1,1,1h19.9c.6,0,1-.5,1-1v-19.4c0-.3-.1-.5-.3-.7l-5.6-5.4ZM16.7,34.3v-1.5l2,2h-1.6c-.3,0-.5-.2-.5-.5ZM15.7,36.7h4.4s0,0,.1,0v17.3H2.3v-22.7h12.3v4.3c0,.6.5,1,1,1Z"/>
</svg>