<?xml version="1.0" encoding="UTF-8"?>
<svg id="Ebene_1" xmlns="http://www.w3.org/2000/svg" version="1.1" viewBox="0 0 27.9 52.6">
  <!-- Generator: Adobe Illustrator 29.1.0, SVG Export Plug-In . SVG Version: 2.1.0 Build 142)  -->
  <path d="M21.4,32.1c-.7.8-1.4,1.4-2.3,1.7-.9.3-1.6.3-2.2,0l-7.8-4.5c-1-.6-2-1.4-2.8-2.2-.8-.9-1.2-2-1.2-3.3s.3-2.2.9-3c.6-.9,1.3-1.5,2.1-1.8.8-.3,1.5-.3,2.1,0l8.2,4.8c.7.4,1.3.9,1.9,1.4.6.5,1.1,1.1,1.5,1.8.4.7.6,1.4.6,2.2,0,1.1-.3,2.1-1,2.9M22.8,5.7c-.8-1.6-2.1-2.9-3.6-3.8-1.6-.9-3.4-1.4-5.5-1.4s-3.7.4-5.3,1.2c-1.5.8-2.7,1.8-3.6,3.2-.9,1.3-1.3,2.9-1.3,4.6s.3,2.5.8,3.6c.5,1.1,1.2,2.1,2.1,3v.2c-1.1.3-2.1.9-3,1.7-.9.8-1.6,1.8-2.1,2.8-.5,1-.8,2.1-.8,3.1s.2,2.4.6,3.5c.4,1,1,1.9,1.6,2.7.6.8,1.3,1.4,2,1.9.7.5,1.3.9,1.9,1.3l8.1,4.7c.7.4,1.3.8,2,1.3.7.5,1.3,1.1,1.8,1.8.5.7.7,1.6.7,2.7,0,1.5-.6,2.7-1.8,3.5-1.2.8-2.5,1.1-4.1,1.1s-3.4-.5-4.7-1.6c-1.2-1.1-1.8-2.7-1.8-4.7H2.1c0,2.2.5,4.1,1.5,5.7,1,1.6,2.3,2.8,4,3.7,1.7.9,3.7,1.3,5.9,1.3s3.6-.3,5.2-1c1.6-.6,2.9-1.6,3.9-3,1-1.3,1.5-3,1.5-5.1s-.2-2.6-.7-3.7c-.5-1.1-1.2-2.2-2.2-3h0c1.1-.4,2-1,2.9-1.8.9-.8,1.6-1.7,2.1-2.7.5-1,.8-2.1.8-3.1s-.2-2.4-.6-3.4c-.4-1-1-1.9-1.6-2.6-.6-.7-1.3-1.4-2-1.9-.7-.5-1.3-.9-1.9-1.2l-8.1-4.8c-.7-.4-1.3-.9-2-1.5-.7-.6-1.3-1.2-1.8-2-.5-.7-.7-1.5-.7-2.3s.2-1.4.6-2.1c.4-.7,1-1.3,1.8-1.7.8-.5,1.8-.7,3.1-.7,2,0,3.4.6,4.3,1.8.9,1.2,1.4,2.7,1.4,4.5h4.8c0-2.1-.4-3.9-1.3-5.5"/>
</svg>