<?xml version="1.0" encoding="UTF-8"?>
<svg id="Ebene_1" xmlns="http://www.w3.org/2000/svg" version="1.1" xmlns:xlink="http://www.w3.org/1999/xlink" viewBox="0 0 43.9 55.6">
  <!-- Generator: Adobe Illustrator 29.1.0, SVG Export Plug-In . SVG Version: 2.1.0 Build 142)  -->
  <defs>
    <style>
      .st0 {
        fill: #262626;
      }

      .st1 {
        fill: none;
      }

      .st2 {
        clip-path: url(#clippath);
      }
    </style>
    <clipPath id="clippath">
      <rect class="st1" x=".4" width="43.5" height="55.9"/>
    </clipPath>
  </defs>
  <g class="st2">
    <path class="st0" d="M2,54.4h40.4V22.2H2v32.2ZM43.1,55.9H1.2c-.4,0-.8-.3-.8-.8V21.4c0-.4.3-.8.8-.8h42c.4,0,.8.4.8.8v33.7c0,.4-.3.8-.8.8"/>
    <path class="st0" d="M36.1,22.2c-.4,0-.8-.3-.8-.8v-7c0-7.1-6-12.9-13.3-12.9s-13.3,5.8-13.3,12.9v7c0,.4-.3.8-.8.8s-.8-.3-.8-.8v-7C7.2,6.5,13.8,0,22,0s14.8,6.5,14.8,14.4v7c0,.4-.3.8-.8.8"/>
    <path class="st0" d="M22.2,44.2c-.4,0-.8-.3-.8-.8v-10.3c0-.4.3-.8.8-.8s.8.3.8.8v10.3c0,.4-.3.8-.8.8"/>
  </g>
</svg>