<?xml version="1.0" encoding="UTF-8"?>
<svg id="Ebene_1" xmlns="http://www.w3.org/2000/svg" version="1.1" xmlns:xlink="http://www.w3.org/1999/xlink" viewBox="0 0 36.2 60.2">
  <!-- Generator: Adobe Illustrator 29.1.0, SVG Export Plug-In . SVG Version: 2.1.0 Build 142)  -->
  <defs>
    <style>
      .st0 {
        fill: none;
      }

      .st1 {
        fill: #1d1d1b;
      }

      .st2 {
        clip-path: url(#clippath);
      }
    </style>
    <clipPath id="clippath">
      <rect class="st0" y=".3" width="36.2" height="59.6"/>
    </clipPath>
  </defs>
  <g class="st2">
    <path class="st1" d="M7.6,1.9c-.4,0-.6.3-.6.4,0,.1-.2.4,0,.7,0,0,0,0,0,0l1.6,3.1c0,.1,0,.2,0,.4v18.8c0,.1,0,.3-.1.4l-6.9,11.9c-.2.4,0,.7,0,.8,0,.1.3.4.7.4h31.3c.4,0,.6-.3.7-.4,0-.1.2-.4,0-.8l-6.9-11.9c0-.1-.1-.3-.1-.4V6.8c0-.1,0-.3,0-.4l1.6-3.2s0,0,0,0c.2-.3.1-.6,0-.7,0-.1-.2-.4-.6-.4H7.6ZM33.8,40.7H2.4c-.9,0-1.7-.5-2.1-1.2-.4-.8-.4-1.7,0-2.4l6.8-11.7V6.9l-1.5-2.9c-.5-.7-.5-1.6-.1-2.4.4-.8,1.2-1.3,2.1-1.3h21c.9,0,1.7.5,2.1,1.3.4.8.4,1.7-.1,2.4l-1.5,3v18.3l6.8,11.7c.4.8.4,1.7,0,2.4-.4.8-1.2,1.2-2.1,1.2"/>
    <path class="st1" d="M18.1,59.9c-.5,0-.8-.4-.8-.8v-19.2c0-.5.4-.8.8-.8s.8.4.8.8v19.2c0,.5-.4.8-.8.8"/>
  </g>
</svg>