<?xml version="1.0" encoding="UTF-8"?>
<svg id="Ebene_1" xmlns="http://www.w3.org/2000/svg" version="1.1" viewBox="0 0 48.8 52.6">
  <!-- Generator: Adobe Illustrator 29.1.0, SVG Export Plug-In . SVG Version: 2.1.0 Build 142)  -->
  <path d="M45.6,13.8c-2.7-5.7-7.4-10.1-13.4-12.2-6-2.2-12.4-1.9-18.1.8C8.3,5.1,4,9.9,1.9,15.8-.3,21.8,0,28.2,2.7,33.9c3.9,8.3,12.3,13.6,21.5,13.6s1,0,1.5,0l-4.5,3.3c-.2.1-.3.3-.3.6,0,.2,0,.5.2.6.2.2.4.4.7.4s.4,0,.5-.2l6.9-5.1c.2-.2.4-.4.4-.7,0-.3-.1-.5-.4-.7l-6.9-5c-.2-.1-.4-.2-.7-.2-.2,0-.4.2-.6.4-.1.2-.2.4-.2.7,0,.2.2.4.4.6l4.9,3.6c-9.1.8-17.8-4.2-21.8-12.5-2.5-5.3-2.8-11.3-.8-16.8,2-5.5,6-9.9,11.3-12.4,5.3-2.5,11.3-2.8,16.8-.8,5.5,2,9.9,6,12.4,11.3,4.3,9.1,1.8,19.9-5.9,26.2-.4.3-.4.9-.1,1.2.3.4.9.4,1.2.1,8.3-6.9,10.9-18.5,6.4-28.3Z"/>
</svg>