<?xml version="1.0" encoding="UTF-8"?>
<svg id="Ebene_1" xmlns="http://www.w3.org/2000/svg" version="1.1" xmlns:xlink="http://www.w3.org/1999/xlink" viewBox="0 0 49.2 60.2">
  <!-- Generator: Adobe Illustrator 29.1.0, SVG Export Plug-In . SVG Version: 2.1.0 Build 142)  -->
  <defs>
    <style>
      .st0 {
      fill: none;
      }

      .st1 {
      fill: #FFFFFF;
      }

      .st2 {
      clip-path: url(#clippath);
      }
    </style>
    <clipPath id="clippath">
      <rect class="st0" width="49.2" height="60.2"/>
    </clipPath>
  </defs>
  <g class="st2">
    <path class="st1" d="M48,22c-.5,0-.8.4-.8.8v20.1l-22.6,15L2,43V6.6l1.4-.5C17.1.7,32.1.7,45.8,6l.8.3-21.8,28-7.2-6.7c-.3-.3-.9-.3-1.2,0-.3.3-.3.9,0,1.2l7.9,7.4c.2.1.4.2.6.2s0,0,0,0c.2,0,.5-.1.6-.3L48.7,6.5s0,0,0-.1c0,0,0,0,0-.1,0,0,0,0,0,0,0,0,0-.1,0-.2,0,0,0-.1,0-.2,0,0,0-.1,0-.2,0,0,0-.1,0-.2,0,0,0,0,0-.1,0,0,0,0-.1-.1,0,0,0,0,0,0,0,0,0,0-.1,0,0,0,0,0-.1,0l-1.9-.7C32.4-1.1,16.8-1.1,2.8,4.4l-1.9.7c-.3.1-.5.4-.5.8v37.4c0,.3.1.6.4.7l23.4,15.6c.1,0,.3.1.5.1s.3,0,.5-.1l23.4-15.6c.2-.2.4-.4.4-.7v-20.5c0-.5-.4-.8-.8-.8"/>
    <path class="st1" d="M47.2,43h0,0ZM24.6.6c-7.4,0-14.7,1.4-21.7,4.1l-1.9.7c-.2,0-.3.3-.3.5v37.4c0,.2,0,.3.2.4l23.4,15.6c.2.1.4.1.6,0l23.4-15.6c.1,0,.2-.3.2-.4v-20.5c0-.3-.2-.5-.5-.5s-.5.2-.5.5v20.1c0,.1,0,.2-.1.3l-22.6,15c-.1,0-.2,0-.4,0L1.8,43.2c0,0-.1-.2-.1-.3V6.6c0-.1,0-.2.2-.3l1.4-.5C17,.4,32.2.4,45.9,5.7l.8.3c0,0,.2.1.2.2,0,0,0,.2,0,.3l-21.8,28c0,0-.1.1-.2.1,0,0-.2,0-.2,0l-7.3-6.7c-.2-.2-.6-.2-.7,0-.2.2-.2.6,0,.7l7.9,7.4c0,0,.2.1.4.1.2,0,.3,0,.4-.2L48.4,6.3s0,0,0,0c0,0,0,0,0,0,0,0,0,0,0,0,0,0,0,0,0-.1h0c0,0,0-.2,0-.2h0c0,0,0-.2,0-.2,0,0,0,0,0,0,0,0,0,0,0,0,0,0,0,0,0,0,0,0,0,0,0,0l-1.9-.7C39.3,2,32,.6,24.6.6M24.6,60.2c-.2,0-.5,0-.6-.2L.5,44.4c-.3-.2-.5-.6-.5-1V6c0-.5.3-.9.7-1.1l1.9-.7c14.2-5.5,29.7-5.5,43.9,0l1.9.7s.1,0,.1,0c0,0,0,0,.2,0,0,0,0,0,0,0,0,0,0,0,.1.1,0,0,0,.1.1.2,0,0,0,.1,0,.2,0,.1,0,.2,0,.2,0,0,0,.1,0,.2,0,0,0,.2,0,.3,0,.1,0,.2,0,.2,0,0,0,.1,0,.2l-23.1,29.6c-.2.3-.5.4-.8.4,0,0,0,0,0,0-.3,0-.6-.1-.8-.3l-7.9-7.4c-.5-.4-.5-1.2,0-1.7.4-.5,1.2-.5,1.7,0l7,6.5L46.1,6.5l-.4-.2C32.1,1,17.1,1,3.5,6.3l-1.2.5v36l22.3,14.8,22.3-14.8v-19.9c0-.6.5-1.2,1.2-1.2s1.2.5,1.2,1.2v20.5c0,.4-.2.8-.5,1l-23.4,15.6c-.2.1-.4.2-.6.2"/>
  </g>
</svg>