<?xml version="1.0" encoding="UTF-8"?>
<svg id="Ebene_1" xmlns="http://www.w3.org/2000/svg" version="1.1" xmlns:xlink="http://www.w3.org/1999/xlink" viewBox="0 0 60.5 60.2">
  <!-- Generator: Adobe Illustrator 29.1.0, SVG Export Plug-In . SVG Version: 2.1.0 Build 142)  -->
  <defs>
    <style>
      .st0 {
        fill: none;
      }

      .st1 {
        fill: #FFFFFF;
      }

      .st2 {
        clip-path: url(#clippath);
      }
    </style>
    <clipPath id="clippath">
      <rect class="st0" width="60.5" height="59.6"/>
    </clipPath>
  </defs>
  <g class="st2">
    <path class="st1" d="M3.4,23.8l16.1,12.1c.3.2.4.6.3,1l-6.2,19.6,16.1-12.1c.3-.2.7-.2,1,0l16.1,12.1-6.2-19.6c-.1-.3,0-.7.3-1l16.1-12.1h-19.9c-.4,0-.7-.2-.8-.6L30.2,3.6l-6.2,19.6c-.1.4-.4.6-.8.6H3.4ZM12.1,59.6c-.2,0-.3,0-.5-.2-.3-.2-.4-.6-.3-1l6.8-21.5L.3,23.6c-.3-.2-.4-.6-.3-1,.1-.4.4-.6.8-.6h21.9L29.5.6c.1-.4.4-.6.8-.6s.7.2.8.6l6.8,21.5h21.9c.4,0,.7.2.8.6.1.4,0,.7-.3,1l-17.7,13.3,6.8,21.5c.1.4,0,.7-.3,1-.3.2-.7.2-1,0l-17.7-13.3-17.7,13.3c-.1.1-.3.2-.5.2"/>
  </g>
</svg>