<?xml version="1.0" encoding="UTF-8"?>
<svg id="Ebene_1" xmlns="http://www.w3.org/2000/svg" version="1.1" viewBox="0 0 52.9 55.6">
  <style>
    .st0 {
    fill: none;
    }

    .st1 {
    fill: #FFFFFF;
    }

    .st2 {
    clip-path: url(#clippath);
    }
  </style>

  <!-- Generator: Adobe Illustrator 29.1.0, SVG Export Plug-In . SVG Version: 2.1.0 Build 142)  -->
  <g class="st0">
    <path class="st1" d="M1.5,54.2h10.7v-26.3H1.5v26.3ZM12.9,55.8H.7C.3,55.8,0,55.4,0,55v-27.9c0-.4.3-.8.7-.8h12.1c.4,0,.7.3.7.8v27.9c0,.4-.3.8-.7.8"/>
    <path class="st1" d="M21.3,54.2h10.7V14.8h-10.7v39.4ZM32.7,55.8h-12.1c-.4,0-.7-.3-.7-.8V14c0-.4.3-.8.7-.8h12.1c.4,0,.7.3.7.8v41c0,.4-.3.8-.7.8"/>
    <path class="st1" d="M52.1,55.8h-12.1c-.4,0-.7-.3-.7-.8V.9c0-.4.3-.8.7-.8h12.1c.4,0,.7.3.7.8v54.1c0,.4-.3.8-.7.8"/>
  </g>

</svg>