<svg width="840" height="800" viewBox="0 0 840 800" fill="none" xmlns="http://www.w3.org/2000/svg">
<path fill-rule="evenodd" clip-rule="evenodd" d="M491.68 372.907H737.92L538.72 173.707L576.427 136L840 399.573L576.427 663.147L538.72 625.44L737.92 426.24H491.68C491.68 426.24 413 426.24 185 426.24V372.907C573.678 367.471 263.25 371.885 491.68 372.907Z" fill="black"/>
<path fill-rule="evenodd" clip-rule="evenodd" d="M-3.49691e-05 0L470.588 -2.05701e-05L470.588 94.12L423.53 94.12L423.53 47.0588L47.0591 47.0588L47.0592 752.942L423.53 752.942L423.53 705.883L470.588 705.883L470.588 800L0.000833333 800L-3.49691e-05 0Z" fill="black"/>
</svg>
