<svg width="3883" height="1305" viewBox="0 0 3883 1305" fill="none" xmlns="http://www.w3.org/2000/svg">
<path d="M1447.68 67.5212L2066.01 959.048V1027.35H1865.95L1447.68 424.132V1027.35H1247.61V67.5212H1447.68ZM1865.95 67.5212H2066.01V786.182L1865.95 642.329V67.5212Z" fill="black"/>
<path d="M2596.71 467.046C2640.83 479.135 2681.33 492.432 2718.2 506.938C2755.07 521.444 2787.1 539.577 2814.3 560.127C2841.5 581.282 2862.05 606.064 2877.16 635.681C2892.28 664.693 2899.53 699.75 2899.53 739.642V743.873C2899.53 787.996 2890.46 827.888 2872.93 864.757C2855.4 901.627 2830.62 932.453 2798.59 958.443C2767.16 984.434 2730.29 1004.38 2687.37 1018.89C2645.06 1032.79 2598.52 1040.04 2548.35 1040.04C2501.81 1040.04 2457.08 1034.6 2414.77 1023.12C2372.46 1011.63 2333.78 996.522 2298.72 978.389C2264.27 959.652 2233.44 938.497 2207.45 914.925C2181.46 891.352 2161.51 866.571 2147.61 841.185L2307.79 739.642C2325.32 758.983 2342.24 775.907 2359.77 791.018C2377.3 806.128 2395.43 818.821 2414.77 829.701C2434.11 839.976 2455.27 848.438 2477.63 853.878C2500.6 859.318 2525.38 862.34 2553.19 862.34C2570.72 862.34 2588.24 860.526 2605.77 856.9C2623.3 853.273 2639.62 847.229 2654.73 838.767C2669.24 830.305 2681.33 820.03 2690.39 807.942C2699.46 795.853 2704.3 780.138 2704.3 762.005C2704.3 749.312 2701.27 736.619 2694.63 725.135C2687.98 713.047 2677.1 701.563 2661.99 690.079C2646.27 678.595 2625.12 667.715 2599.12 656.835C2572.53 646.56 2539.29 636.285 2498.79 626.01C2449.23 613.921 2405.1 600.624 2365.81 585.513C2326.52 570.403 2293.28 552.27 2265.48 530.511C2238.28 508.751 2217.12 483.365 2202.62 453.144C2188.11 422.923 2180.86 387.262 2180.86 346.161C2180.86 301.434 2189.32 260.937 2206.24 224.672C2223.17 188.406 2246.74 158.185 2276.96 133.404C2307.18 108.622 2342.84 89.885 2383.34 76.5876C2423.84 63.2903 2467.96 56.6416 2514.5 56.6416C2562.86 56.6416 2606.98 62.0814 2646.27 72.9611C2685.56 83.8407 2720.62 97.7425 2752.05 114.666C2782.87 131.59 2810.07 150.932 2833.65 172.087C2857.22 193.846 2876.56 214.396 2891.67 234.342L2733.91 335.886C2694.63 298.412 2657.15 272.421 2622.09 257.311C2587.04 242.2 2550.17 234.947 2511.48 234.947C2487.91 234.947 2467.36 237.969 2450.43 244.013C2433.51 250.058 2419.61 257.311 2408.73 265.773C2397.85 274.235 2389.39 284.51 2383.34 295.389C2377.3 306.269 2374.28 317.149 2374.28 326.819C2374.28 344.952 2379.11 360.667 2388.78 373.965C2398.45 387.262 2412.35 399.35 2431.09 410.23C2449.83 421.11 2473.4 431.385 2501.21 440.451C2529.01 448.309 2561.05 457.98 2596.71 467.046Z" fill="black"/>
<path d="M3605.51 857.504H3166.69L3094.16 1027.35H2888.65L3282.13 67.5212H3489.46L3235.59 685.848H3536L3400 357.041L3554.74 224.067L3882.34 1027.35H3676.83L3605.51 857.504Z" fill="black"/>
<path d="M1361.24 1186.31V1302.36H1338.88V1142.19H1370.31L1396.3 1237.69V1142.19H1418.66V1302.36H1392.67L1361.24 1186.31Z" fill="black"/>
<path d="M1454.93 1180.27C1454.93 1154.88 1468.23 1139.77 1493.01 1139.77C1517.79 1139.77 1531.09 1154.28 1531.09 1180.27V1263.68C1531.09 1289.06 1517.79 1304.17 1493.01 1304.17C1468.23 1304.17 1454.93 1289.67 1454.93 1263.68V1180.27ZM1480.32 1264.89C1480.32 1276.37 1485.15 1280.6 1493.61 1280.6C1501.47 1280.6 1506.91 1276.37 1506.91 1264.89V1178.45C1506.91 1166.97 1502.08 1162.74 1493.61 1162.74C1485.76 1162.74 1480.32 1166.97 1480.32 1178.45V1264.89Z" fill="black"/>
<path d="M1620.55 1301.76C1619.34 1297.53 1618.13 1295.11 1618.13 1281.81V1256.42C1618.13 1241.31 1613.29 1235.87 1601.81 1235.87H1593.35V1301.15H1567.96V1140.98H1606.04C1632.03 1140.98 1643.51 1153.07 1643.51 1177.85V1190.54C1643.51 1206.86 1638.07 1217.74 1627.19 1223.18C1639.89 1228.62 1644.12 1240.71 1644.12 1257.03V1281.81C1644.12 1289.67 1644.12 1295.11 1647.14 1301.15H1620.55V1301.76ZM1592.74 1164.55V1213.51H1602.41C1612.08 1213.51 1617.52 1209.28 1617.52 1196.59V1180.87C1617.52 1169.39 1613.9 1164.55 1604.83 1164.55H1592.74Z" fill="black"/>
<path d="M1680.38 1142.19H1720.28C1745.66 1142.19 1757.75 1156.09 1757.75 1181.48V1262.47C1757.75 1287.85 1745.66 1301.76 1720.28 1301.76H1680.38V1142.19ZM1705.17 1164.55V1278.79H1719.07C1726.93 1278.79 1731.76 1274.56 1731.76 1263.07V1179.66C1731.76 1168.18 1726.93 1163.95 1719.07 1163.95H1705.17V1164.55Z" fill="black"/>
<path d="M1794.02 1142.19H1819.4V1302.36H1794.02V1142.19Z" fill="black"/>
<path d="M1931.22 1242.52V1263.68C1931.22 1289.06 1918.53 1304.17 1893.75 1304.17C1868.97 1304.17 1856.27 1289.67 1856.27 1263.68V1180.27C1856.27 1154.88 1868.97 1139.77 1893.75 1139.77C1918.53 1139.77 1931.22 1154.28 1931.22 1180.27V1195.98H1907.65V1179.06C1907.65 1167.57 1902.82 1163.34 1894.35 1163.34C1886.5 1163.34 1881.06 1167.57 1881.06 1179.06V1265.49C1881.06 1276.98 1885.89 1281.21 1894.35 1281.21C1902.21 1281.21 1907.65 1276.98 1907.65 1265.49V1242.52H1931.22Z" fill="black"/>
<path d="M2056.34 1140.38C2080.52 1140.38 2093.21 1154.88 2093.21 1180.87V1186.92H2069.64V1179.06C2069.64 1167.57 2064.8 1163.34 2056.95 1163.34C2049.09 1163.34 2044.25 1167.57 2044.25 1179.06C2044.25 1211.7 2093.21 1218.35 2093.21 1263.68C2093.21 1289.06 2080.52 1304.17 2055.74 1304.17C2030.96 1304.17 2018.26 1289.67 2018.26 1263.68V1252.8H2041.84V1265.49C2041.84 1276.98 2046.67 1281.21 2055.13 1281.21C2062.99 1281.21 2068.43 1276.98 2068.43 1265.49C2068.43 1232.85 2019.47 1226.2 2019.47 1180.87C2019.47 1154.88 2032.17 1140.38 2056.34 1140.38Z" fill="black"/>
<path d="M2209.87 1301.76H2184.48L2180.25 1272.74H2149.43L2145.19 1301.76H2122.23L2147.61 1141.58H2184.48L2209.87 1301.76ZM2152.45 1250.99H2176.62L2164.54 1169.99L2152.45 1250.99Z" fill="black"/>
<path d="M2267.29 1212.91H2299.93V1235.87H2267.29V1301.76H2241.9V1141.58H2308.39V1164.55H2267.29V1212.91Z" fill="black"/>
<path d="M2366.42 1209.28H2400.87V1232.25H2366.42V1279.39H2409.94V1302.36H2341.64V1142.19H2409.94V1165.16H2366.42V1209.28Z" fill="black"/>
<path d="M2439.55 1142.19H2517.53V1165.16H2491.54V1302.36H2466.15V1165.16H2440.16V1142.19H2439.55Z" fill="black"/>
<path d="M2572.53 1249.17L2540.49 1142.19H2566.48L2585.83 1215.32L2605.17 1142.19H2629.35L2597.31 1249.17V1302.36H2571.92V1249.17H2572.53Z" fill="black"/>
<path d="M2797.38 1301.76H2771.99L2767.76 1272.74H2736.94L2732.7 1301.76H2709.13L2734.52 1141.58H2771.39L2797.38 1301.76ZM2739.96 1250.99H2764.13L2752.05 1169.99L2739.96 1250.99Z" fill="black"/>
<path d="M2863.26 1140.38C2887.44 1140.38 2900.13 1154.88 2900.13 1180.87V1186.92H2876.56V1179.06C2876.56 1167.57 2871.72 1163.34 2863.87 1163.34C2856.01 1163.34 2851.17 1167.57 2851.17 1179.06C2851.17 1211.7 2900.13 1218.35 2900.13 1263.68C2900.13 1289.06 2887.44 1304.17 2862.66 1304.17C2837.88 1304.17 2825.18 1289.67 2825.18 1263.68V1252.8H2848.76V1265.49C2848.76 1276.98 2853.59 1281.21 2862.05 1281.21C2869.91 1281.21 2875.35 1276.98 2875.35 1265.49C2875.35 1232.85 2826.39 1226.2 2826.39 1180.87C2826.39 1154.88 2839.08 1140.38 2863.26 1140.38Z" fill="black"/>
<path d="M2969.64 1140.38C2993.82 1140.38 3006.51 1154.88 3006.51 1180.87V1186.92H2982.94V1179.06C2982.94 1167.57 2978.1 1163.34 2970.25 1163.34C2962.39 1163.34 2957.55 1167.57 2957.55 1179.06C2957.55 1211.7 3006.51 1218.35 3006.51 1263.68C3006.51 1289.06 2993.82 1304.17 2969.04 1304.17C2944.26 1304.17 2931.56 1289.67 2931.56 1263.68V1252.8H2955.14V1265.49C2955.14 1276.98 2959.97 1281.21 2968.43 1281.21C2976.9 1281.21 2981.73 1276.98 2981.73 1265.49C2981.73 1232.85 2932.77 1226.2 2932.77 1180.87C2932.17 1154.88 2944.86 1140.38 2969.64 1140.38Z" fill="black"/>
<path d="M3039.76 1180.27C3039.76 1154.88 3053.05 1139.77 3077.84 1139.77C3102.62 1139.77 3115.92 1154.28 3115.92 1180.27V1263.68C3115.92 1289.06 3102.62 1304.17 3077.84 1304.17C3053.05 1304.17 3039.76 1289.67 3039.76 1263.68V1180.27ZM3064.54 1264.89C3064.54 1276.37 3069.37 1280.6 3077.84 1280.6C3085.69 1280.6 3091.13 1276.37 3091.13 1264.89V1178.45C3091.13 1166.97 3086.3 1162.74 3077.84 1162.74C3069.98 1162.74 3064.54 1166.97 3064.54 1178.45V1264.89Z" fill="black"/>
<path d="M3225.92 1242.52V1263.68C3225.92 1289.06 3213.23 1304.17 3188.45 1304.17C3163.67 1304.17 3150.97 1289.67 3150.97 1263.68V1180.27C3150.97 1154.88 3163.67 1139.77 3188.45 1139.77C3213.23 1139.77 3225.92 1154.28 3225.92 1180.27V1195.98H3202.35V1179.06C3202.35 1167.57 3197.51 1163.34 3189.05 1163.34C3180.59 1163.34 3175.75 1167.57 3175.75 1179.06V1265.49C3175.75 1276.98 3180.59 1281.21 3189.05 1281.21C3197.51 1281.21 3202.35 1276.98 3202.35 1265.49V1242.52H3225.92Z" fill="black"/>
<path d="M3261.58 1142.19H3286.97V1302.36H3261.58V1142.19Z" fill="black"/>
<path d="M3406.65 1301.76H3381.26L3377.03 1272.74H3346.21L3341.97 1301.76H3319.01L3344.39 1141.58H3381.26L3406.65 1301.76ZM3349.83 1250.99H3374.01L3361.92 1169.99L3349.83 1250.99Z" fill="black"/>
<path d="M3423.57 1142.19H3500.94V1165.16H3474.95V1302.36H3449.56V1165.16H3423.57V1142.19Z" fill="black"/>
<path d="M3532.98 1142.19H3558.36V1302.36H3532.98V1142.19Z" fill="black"/>
<path d="M3595.23 1180.27C3595.23 1154.88 3608.53 1139.77 3633.31 1139.77C3658.09 1139.77 3671.39 1154.28 3671.39 1180.27V1263.68C3671.39 1289.06 3658.09 1304.17 3633.31 1304.17C3608.53 1304.17 3595.23 1289.67 3595.23 1263.68V1180.27ZM3620.01 1264.89C3620.01 1276.37 3624.85 1280.6 3633.31 1280.6C3641.77 1280.6 3646.61 1276.37 3646.61 1264.89V1178.45C3646.61 1166.97 3641.77 1162.74 3633.31 1162.74C3624.85 1162.74 3620.01 1166.97 3620.01 1178.45V1264.89Z" fill="black"/>
<path d="M3730.63 1186.31V1302.36H3708.26V1142.19H3739.69L3765.68 1237.69V1142.19H3788.05V1302.36H3762.06L3730.63 1186.31Z" fill="black"/>
<path d="M770.711 303.247V386.053C770.711 563.15 704.827 714.86 574.874 837.558C524.102 885.308 473.329 919.76 434.041 942.124C394.753 919.76 343.98 885.308 293.208 837.558C163.254 714.86 97.371 563.15 97.371 386.053V144.283C185.014 120.711 305.296 97.1381 434.041 97.1381C536.795 97.1381 634.109 112.249 714.498 130.381L794.284 50.5974C700.596 25.816 571.852 0.430176 434.041 0.430176C276.284 0.430176 130.01 33.6735 35.1143 61.4771L0.0571289 71.7523V386.053C0.0571289 590.349 76.2159 766.236 226.116 907.672C295.021 972.95 364.531 1015.26 410.468 1040.04L433.436 1052.13L456.405 1040.04C502.342 1015.86 571.852 972.95 640.757 907.672C790.657 766.236 866.816 590.349 866.816 386.053V206.539L770.711 303.247Z" fill="#33826E"/>
<path d="M929.677 103.182L856.541 29.4426L434.041 451.936L232.764 250.662L159.023 324.402L434.041 598.811L929.677 103.182Z" fill="#33826E"/>
</svg>
