<svg width="930" height="1053" viewBox="0 0 930 1053" fill="none" xmlns="http://www.w3.org/2000/svg">
<path d="M770.711 303.247V386.053C770.711 563.15 704.827 714.86 574.874 837.558C524.102 885.308 473.329 919.76 434.041 942.124C394.753 919.76 343.98 885.308 293.208 837.558C163.254 714.86 97.371 563.15 97.371 386.053V144.283C185.014 120.711 305.296 97.1381 434.041 97.1381C536.795 97.1381 634.109 112.249 714.498 130.381L794.284 50.5974C700.596 25.816 571.852 0.430176 434.041 0.430176C276.284 0.430176 130.01 33.6735 35.1143 61.4771L0.0571289 71.7523V386.053C0.0571289 590.349 76.2159 766.236 226.116 907.672C295.021 972.95 364.531 1015.26 410.468 1040.04L433.436 1052.13L456.405 1040.04C502.342 1015.86 571.852 972.95 640.757 907.672C790.657 766.236 866.816 590.349 866.816 386.053V206.539L770.711 303.247Z" fill="white"/>
<path d="M929.677 103.182L856.541 29.4426L434.041 451.936L232.764 250.662L159.023 324.402L434.041 598.811L929.677 103.182Z" fill="white"/>
</svg>
