<svg width="800" height="800" viewBox="0 0 800 800" fill="none" xmlns="http://www.w3.org/2000/svg">
<g clip-path="url(#clip0_497_159)">
<path fill-rule="evenodd" clip-rule="evenodd" d="M400 752.941C205.365 752.941 47.0588 594.635 47.0588 400C47.0588 205.365 205.365 47.0588 400 47.0588C594.635 47.0588 752.941 205.365 752.941 400C752.941 594.635 594.635 752.941 400 752.941ZM400 0C179.435 0 0 179.435 0 400C0 620.565 179.435 800 400 800C620.565 800 800 620.565 800 400C800 179.435 620.565 0 400 0Z" fill="white"/>
<path d="M527.085 240L240 527.085L273.276 560.361L560.361 273.276L527.085 240Z" fill="white"/>
<path d="M273.276 240L560.361 527.085L527.085 560.361L240 273.276L273.276 240Z" fill="white"/>
</g>
<defs>
<clipPath id="clip0_497_159">
<rect width="800" height="800" fill="white"/>
</clipPath>
</defs>
</svg>
