<svg width="800" height="800" viewBox="0 0 800 800" fill="none" xmlns="http://www.w3.org/2000/svg">
<g clip-path="url(#clip0_497_75)">
<path fill-rule="evenodd" clip-rule="evenodd" d="M400 752.941C205.365 752.941 47.0587 594.635 47.0587 400C47.0587 205.365 205.365 47.0587 400 47.0587C594.635 47.0587 752.941 205.365 752.941 400C752.941 594.635 594.635 752.941 400 752.941ZM400 0C179.435 0 0 179.435 0 400C0 620.565 179.435 800 400 800C620.565 800 800 620.565 800 400C800 179.435 620.565 0 400 0ZM355.977 482.49L242.941 369.454L209.67 402.725L355.977 549.03L606 299.007L572.729 265.736L355.977 482.49Z" fill="white"/>
</g>
<defs>
<clipPath id="clip0_497_75">
<rect width="800" height="800" fill="white"/>
</clipPath>
</defs>
</svg>
